<svg width="50" height="50" viewBox="0 0 50 50" fill="none" xmlns="http://www.w3.org/2000/svg">
<path fill-rule="evenodd" clip-rule="evenodd" d="M25 7.8125C15.5076 7.8125 7.8125 15.5076 7.8125 25C7.8125 34.4924 15.5076 42.1875 25 42.1875C34.4924 42.1875 42.1875 34.4924 42.1875 25C42.1875 15.5076 34.4924 7.8125 25 7.8125ZM4.6875 25C4.6875 13.7817 13.7817 4.6875 25 4.6875C36.2183 4.6875 45.3125 13.7817 45.3125 25C45.3125 36.2183 36.2183 45.3125 25 45.3125C13.7817 45.3125 4.6875 36.2183 4.6875 25Z" fill="#0F3A7D"/>
<path fill-rule="evenodd" clip-rule="evenodd" d="M26.5187 15.0286C27.0268 15.3005 27.3439 15.83 27.3439 16.4063V34.375C27.3439 35.2379 26.6444 35.9375 25.7814 35.9375C24.9185 35.9375 24.2189 35.2379 24.2189 34.375V19.3258L21.9606 20.8313C21.2426 21.31 20.2725 21.116 19.7938 20.398C19.3152 19.68 19.5092 18.7099 20.2272 18.2312L24.9147 15.1062C25.3942 14.7865 26.0106 14.7567 26.5187 15.0286Z" fill="#0F3A7D"/>
</svg>
