<svg width="50" height="50" viewBox="0 0 50 50" fill="none" xmlns="http://www.w3.org/2000/svg">
<path d="M25.625 25.4582C26.7366 24.4959 27.6282 23.3058 28.2393 21.9686C28.8504 20.6314 29.1667 19.1784 29.1667 17.7082C29.1667 14.9455 28.0692 12.296 26.1157 10.3425C24.1622 8.38897 21.5127 7.2915 18.75 7.2915C15.9873 7.2915 13.3378 8.38897 11.3843 10.3425C9.43081 12.296 8.33334 14.9455 8.33334 17.7082C8.33333 19.1784 8.6496 20.6314 9.26069 21.9686C9.87178 23.3058 10.7634 24.4959 11.875 25.4582C8.95863 26.7788 6.48431 28.9114 4.74789 31.601C3.01146 34.2906 2.08641 37.4234 2.08334 40.6248C2.08334 41.1774 2.30284 41.7073 2.69354 42.098C3.08424 42.4887 3.61414 42.7082 4.16668 42.7082C4.71921 42.7082 5.24912 42.4887 5.63982 42.098C6.03052 41.7073 6.25001 41.1774 6.25001 40.6248C6.25001 37.3096 7.56697 34.1302 9.91118 31.786C12.2554 29.4418 15.4348 28.1248 18.75 28.1248C22.0652 28.1248 25.2446 29.4418 27.5888 31.786C29.9331 34.1302 31.25 37.3096 31.25 40.6248C31.25 41.1774 31.4695 41.7073 31.8602 42.098C32.2509 42.4887 32.7808 42.7082 33.3333 42.7082C33.8859 42.7082 34.4158 42.4887 34.8065 42.098C35.1972 41.7073 35.4167 41.1774 35.4167 40.6248C35.4136 37.4234 34.4886 34.2906 32.7521 31.601C31.0157 28.9114 28.5414 26.7788 25.625 25.4582ZM18.75 23.9582C17.5139 23.9582 16.3055 23.5916 15.2777 22.9049C14.2499 22.2181 13.4488 21.242 12.9758 20.0999C12.5027 18.9579 12.3789 17.7012 12.6201 16.4889C12.8613 15.2765 13.4565 14.1628 14.3306 13.2888C15.2047 12.4147 16.3183 11.8194 17.5307 11.5783C18.7431 11.3371 19.9997 11.4609 21.1418 11.9339C22.2838 12.407 23.2599 13.208 23.9467 14.2359C24.6335 15.2637 25 16.472 25 17.7082C25 19.3658 24.3415 20.9555 23.1694 22.1276C21.9973 23.2997 20.4076 23.9582 18.75 23.9582ZM39.0417 24.6248C40.3749 23.1234 41.2459 21.2687 41.5496 19.2839C41.8533 17.2991 41.5769 15.2687 40.7537 13.4373C39.9304 11.6059 38.5954 10.0515 36.9093 8.96113C35.2232 7.87077 33.2579 7.29097 31.25 7.2915C30.6975 7.2915 30.1676 7.511 29.7769 7.9017C29.3862 8.2924 29.1667 8.8223 29.1667 9.37484C29.1667 9.92737 29.3862 10.4573 29.7769 10.848C30.1676 11.2387 30.6975 11.4582 31.25 11.4582C32.9076 11.4582 34.4973 12.1167 35.6694 13.2888C36.8415 14.4609 37.5 16.0506 37.5 17.7082C37.4971 18.8024 37.2069 19.8767 36.6585 20.8236C36.1101 21.7705 35.3227 22.5569 34.375 23.104C34.0661 23.2822 33.8082 23.5366 33.6258 23.843C33.4434 24.1495 33.3427 24.4975 33.3333 24.854C33.3246 25.2077 33.4061 25.5577 33.5701 25.8712C33.7342 26.1847 33.9753 26.4512 34.2708 26.6457L35.0833 27.1873L35.3542 27.3332C37.8654 28.5243 39.984 30.4082 41.4604 32.763C42.9368 35.1178 43.7095 37.8455 43.6875 40.6248C43.6875 41.1774 43.907 41.7073 44.2977 42.098C44.6884 42.4887 45.2183 42.7082 45.7708 42.7082C46.3234 42.7082 46.8533 42.4887 47.244 42.098C47.6347 41.7073 47.8542 41.1774 47.8542 40.6248C47.8712 37.4278 47.0705 34.2795 45.5281 31.4791C43.9857 28.6787 41.7528 26.3192 39.0417 24.6248Z" fill="#23A455"/>
</svg>
