<svg width="50" height="50" viewBox="0 0 50 50" fill="none" xmlns="http://www.w3.org/2000/svg">
<path d="M42 10.4165C39.7786 8.21799 36.8445 6.88584 33.7272 6.66044C30.6099 6.43505 27.5146 7.33126 25 9.18736C22.3493 7.21577 19.05 6.32175 15.7665 6.68535C12.483 7.04895 9.45927 8.64314 7.30413 11.1469C5.14899 13.6507 4.02256 16.878 4.15168 20.1791C4.28081 23.4801 5.65589 26.6096 8.00001 28.9374L20.5 41.5415C21.6719 42.7119 23.2604 43.3694 24.9167 43.3694C26.5729 43.3694 28.1615 42.7119 29.3333 41.5415L41.8333 28.9374C43.0645 27.7345 44.0457 26.3003 44.7207 24.717C45.3958 23.1337 45.7512 21.4327 45.7667 19.7116C45.7822 17.9905 45.4574 16.2833 44.811 14.6881C44.1646 13.093 43.2093 11.6413 42 10.4165ZM39.0625 25.9582L26.5625 38.4582C26.3688 38.6535 26.1384 38.8084 25.8846 38.9142C25.6307 39.02 25.3584 39.0744 25.0833 39.0744C24.8083 39.0744 24.536 39.02 24.2821 38.9142C24.0283 38.8084 23.7979 38.6535 23.6042 38.4582L11.1042 25.9582C9.47034 24.2881 8.55545 22.0446 8.55545 19.7082C8.55545 17.3718 9.47034 15.1283 11.1042 13.4582C12.7691 11.8144 15.0145 10.8927 17.3542 10.8927C19.6938 10.8927 21.9393 11.8144 23.6042 13.4582C23.7979 13.6535 24.0283 13.8084 24.2821 13.9142C24.536 14.02 24.8083 14.0744 25.0833 14.0744C25.3584 14.0744 25.6307 14.02 25.8846 13.9142C26.1384 13.8084 26.3688 13.6535 26.5625 13.4582C28.2724 12.0975 30.4234 11.4139 32.6051 11.5375C34.7868 11.6612 36.8467 12.5836 38.3919 14.1288C39.9371 15.674 40.8595 17.7339 40.9832 19.9156C41.1068 22.0973 40.4232 24.2483 39.0625 25.9582Z" fill="#23A455"/>
</svg>
