<svg width="20" height="20" viewBox="0 0 20 20" fill="none" xmlns="http://www.w3.org/2000/svg">
<path fill-rule="evenodd" clip-rule="evenodd" d="M8.125 9.375C7.08947 9.375 6.25 10.2145 6.25 11.25C6.25 12.2855 7.08947 13.125 8.125 13.125C9.16053 13.125 10 12.2855 10 11.25C10 10.2145 9.16053 9.375 8.125 9.375ZM5 11.25C5 9.52411 6.39911 8.125 8.125 8.125C9.85089 8.125 11.25 9.52411 11.25 11.25C11.25 12.9759 9.85089 14.375 8.125 14.375C6.39911 14.375 5 12.9759 5 11.25Z" fill="#FFBF42"/>
<path fill-rule="evenodd" clip-rule="evenodd" d="M2.24112 3.49112C2.47554 3.2567 2.79348 3.125 3.125 3.125H16.875C17.2065 3.125 17.5245 3.2567 17.7589 3.49112C17.9933 3.72554 18.125 4.04348 18.125 4.375V15.625C18.125 15.9565 17.9933 16.2745 17.7589 16.5089C17.5245 16.7433 17.2065 16.875 16.875 16.875H12.0781C11.8367 16.875 11.6168 16.7359 11.5134 16.5178C11.2093 15.8765 10.7295 15.3346 10.1297 14.9552C9.52989 14.5758 8.83473 14.375 8.125 14.375C7.41527 14.375 6.72011 14.5758 6.12031 14.9552C5.5205 15.3346 5.04068 15.8765 4.73661 16.5178C4.63316 16.7359 4.41332 16.875 4.17188 16.875H3.125C2.79348 16.875 2.47554 16.7433 2.24112 16.5089C2.0067 16.2745 1.875 15.9565 1.875 15.625V4.375C1.875 4.04348 2.0067 3.72554 2.24112 3.49112ZM16.875 4.375L3.125 4.375L3.125 15.625H3.79453C4.19816 14.9257 4.7663 14.3326 5.45207 13.8988C6.25181 13.393 7.17869 13.125 8.125 13.125C9.07131 13.125 9.99819 13.393 10.7979 13.8988C11.4837 14.3326 12.0518 14.9257 12.4555 15.625H16.875V4.375Z" fill="#FFBF42"/>
<path fill-rule="evenodd" clip-rule="evenodd" d="M4.375 6.25C4.375 5.90482 4.65482 5.625 5 5.625H15C15.3452 5.625 15.625 5.90482 15.625 6.25V13.75C15.625 14.0952 15.3452 14.375 15 14.375H13.75C13.4048 14.375 13.125 14.0952 13.125 13.75C13.125 13.4048 13.4048 13.125 13.75 13.125H14.375V6.875H5.625V7.5C5.625 7.84518 5.34518 8.125 5 8.125C4.65482 8.125 4.375 7.84518 4.375 7.5V6.25Z" fill="#FFBF42"/>
</svg>
