<svg width="20" height="20" viewBox="0 0 20 20" fill="none" xmlns="http://www.w3.org/2000/svg">
<path fill-rule="evenodd" clip-rule="evenodd" d="M7.82028 3.11902C6.60251 3.04289 5.39885 3.41397 4.43535 4.16257C3.47185 4.91118 2.81479 5.98579 2.5876 7.18459C2.3604 8.38339 2.57869 9.6239 3.20147 10.6731C3.28918 10.8209 3.31217 10.9983 3.26505 11.1635L2.78787 12.837L4.46138 12.3598C4.62663 12.3127 4.804 12.3357 4.95177 12.4234C6.001 13.0462 7.24151 13.2645 8.44031 13.0373C9.63911 12.8101 10.7137 12.1531 11.4623 11.1896C12.2109 10.226 12.582 9.02239 12.5059 7.80462C12.4298 6.58686 11.9117 5.43878 11.0489 4.57601C10.1861 3.71325 9.03804 3.19514 7.82028 3.11902ZM3.66843 3.17549C4.87243 2.24003 6.37654 1.77632 7.89827 1.87145C9.42 1.96658 10.8546 2.61401 11.9328 3.69213C13.0109 4.77026 13.6583 6.2049 13.7534 7.72663C13.8486 9.24836 13.3849 10.7525 12.4494 11.9565C11.5139 13.1605 10.1711 13.9815 8.67307 14.2654C7.26528 14.5322 5.81146 14.3074 4.55324 13.6335L2.85883 14.1166L2.85661 14.1172C2.66959 14.1698 2.47194 14.1717 2.28398 14.1225C2.09602 14.0734 1.92455 13.9751 1.78718 13.8377C1.64981 13.7004 1.55151 13.5289 1.50238 13.3409C1.45325 13.153 1.45507 12.9553 1.50765 12.7683L1.50828 12.7661L1.99142 11.0717C1.31748 9.81344 1.09265 8.35962 1.35946 6.95183C1.64337 5.4538 2.46442 4.11095 3.66843 3.17549Z" fill="#FFBF42"/>
<path fill-rule="evenodd" clip-rule="evenodd" d="M12.1805 6.225C12.1986 5.8803 12.4927 5.61553 12.8374 5.63363C13.9112 5.68999 14.9522 6.02277 15.8595 6.59969C16.7669 7.17662 17.5098 7.97813 18.0163 8.92657C18.5229 9.87501 18.7758 10.9382 18.7507 12.0131C18.7277 12.9961 18.4729 13.9584 18.0087 14.8222L18.4923 16.5183C18.5449 16.7053 18.5467 16.903 18.4976 17.0909C18.4484 17.2789 18.3501 17.4504 18.2128 17.5877C18.0754 17.7251 17.9039 17.8234 17.716 17.8725C17.528 17.9217 17.3303 17.9198 17.1433 17.8672L17.1411 17.8666L15.447 17.3836C14.7149 17.7763 13.9109 18.0194 13.082 18.0976C12.1616 18.1844 11.2334 18.0657 10.3645 17.75C9.49555 17.4343 8.70758 16.9296 8.05752 16.2723C7.40745 15.6149 6.91151 14.8214 6.60553 13.949C6.49128 13.6233 6.66272 13.2666 6.98844 13.1524C7.31416 13.0381 7.67083 13.2096 7.78507 13.5353C8.02979 14.233 8.42641 14.8676 8.94631 15.3933C9.4662 15.919 10.0964 16.3227 10.7913 16.5751C11.4862 16.8276 12.2285 16.9225 12.9646 16.8531C13.7007 16.7837 14.4122 16.5516 15.0477 16.1737L15.3672 16.7109L15.5386 16.1098L17.2121 16.587L16.7349 14.9135C16.6877 14.7479 16.7109 14.5702 16.799 14.4223C17.2391 13.6835 17.4809 12.8436 17.501 11.9839C17.5211 11.1242 17.3188 10.274 16.9137 9.51544C16.5086 8.75693 15.9145 8.11591 15.1888 7.65452C14.4632 7.19312 13.6306 6.92699 12.7719 6.88191C12.4272 6.86381 12.1624 6.5697 12.1805 6.225Z" fill="#FFBF42"/>
</svg>
