<svg width="20" height="20" viewBox="0 0 20 20" fill="none" xmlns="http://www.w3.org/2000/svg">
<path d="M17.2219 7.18204L10.8547 5.32579C10.8188 5.31172 10.7812 5.30079 10.743 5.29297L3.46875 3.17344C2.80625 2.9836 2.1125 3.36876 1.92344 4.03126C1.89141 4.14376 1.875 4.25938 1.875 4.37657V15.2031C1.875 15.8922 2.43437 16.4539 3.12344 16.4547H3.125C3.24063 16.4547 3.35625 16.4383 3.47188 16.4055L10 14.5023V15.4148C10 16.1039 10.5609 16.6648 11.25 16.6648H13.75C14.4391 16.6648 15 16.1039 15 15.4148V13.0453L17.2188 12.3984C17.7531 12.2453 18.1258 11.7508 18.125 11.1961V8.38438C18.125 7.82891 17.7531 7.33438 17.2219 7.18204ZM3.125 4.37579L3.12188 4.37422L10 6.37969V13.2008L3.125 15.2047V4.37579ZM13.75 15.4148H11.25V14.1383L13.75 13.4094V15.4148ZM16.8719 11.1977L11.25 12.8359V6.74376L16.875 8.3836L16.8719 11.1977Z" fill="#FFBF42"/>
</svg>
