<svg width="20" height="20" viewBox="0 0 20 20" fill="none" xmlns="http://www.w3.org/2000/svg">
<path fill-rule="evenodd" clip-rule="evenodd" d="M10 8.4375C8.61929 8.4375 7.5 9.55679 7.5 10.9375C7.5 12.3182 8.61929 13.4375 10 13.4375C11.3807 13.4375 12.5 12.3182 12.5 10.9375C12.5 9.55679 11.3807 8.4375 10 8.4375ZM6.25 10.9375C6.25 8.86643 7.92893 7.1875 10 7.1875C12.0711 7.1875 13.75 8.86643 13.75 10.9375C13.75 13.0086 12.0711 14.6875 10 14.6875C7.92893 14.6875 6.25 13.0086 6.25 10.9375Z" fill="#FFBF42"/>
<path fill-rule="evenodd" clip-rule="evenodd" d="M17.1301 10.1147C16.5662 9.83275 15.9441 9.68645 15.3135 9.68751C14.9684 9.68808 14.6881 9.40873 14.6875 9.06355C14.6869 8.71837 14.9663 8.43809 15.3115 8.43751C16.1368 8.43613 16.951 8.62762 17.6891 8.99671C18.4273 9.3658 19.069 9.90227 19.5631 10.5633C19.7698 10.8398 19.7132 11.2315 19.4367 11.4381C19.1602 11.6448 18.7685 11.5882 18.5619 11.3117C18.1844 10.8066 17.6941 10.3967 17.1301 10.1147Z" fill="#FFBF42"/>
<path fill-rule="evenodd" clip-rule="evenodd" d="M4.68649 9.68751C4.05595 9.68645 3.43388 9.83275 2.8699 10.1147C2.30593 10.3967 1.81565 10.8066 1.43816 11.3117C1.23152 11.5882 0.839863 11.6448 0.563375 11.4381C0.286886 11.2315 0.230266 10.8398 0.436911 10.5633C0.93099 9.90227 1.57271 9.3658 2.31089 8.99671C3.04906 8.62762 3.86328 8.43613 4.68858 8.43751C5.03376 8.43809 5.31311 8.71837 5.31254 9.06355C5.31196 9.40873 5.03167 9.68808 4.68649 9.68751Z" fill="#FFBF42"/>
<path fill-rule="evenodd" clip-rule="evenodd" d="M10 14.6895C9.17907 14.6895 8.37463 14.9201 7.67832 15.3549C6.98202 15.7898 6.42185 16.4115 6.06164 17.1492C5.91019 17.4594 5.53596 17.5881 5.22578 17.4366C4.91561 17.2852 4.78694 16.9109 4.9384 16.6007C5.40134 15.6527 6.12127 14.8536 7.01616 14.2947C7.91105 13.7358 8.94493 13.4395 10 13.4395C11.0551 13.4395 12.089 13.7358 12.9839 14.2947C13.8788 14.8536 14.5987 15.6527 15.0616 16.6007C15.2131 16.9109 15.0844 17.2852 14.7743 17.4366C14.4641 17.5881 14.0899 17.4594 13.9384 17.1492C13.5782 16.4115 13.018 15.7898 12.3217 15.3549C11.6254 14.9201 10.821 14.6895 10 14.6895Z" fill="#FFBF42"/>
<path fill-rule="evenodd" clip-rule="evenodd" d="M5.15073 4.74625C4.806 4.65786 4.44325 4.66941 4.10484 4.77953C3.76643 4.88966 3.46636 5.09382 3.23967 5.36815C3.01298 5.64249 2.86905 5.97567 2.82469 6.32876C2.78032 6.68186 2.83736 7.04029 2.98914 7.36218C3.14092 7.68406 3.38117 7.95611 3.68181 8.14652C3.98246 8.33694 4.33109 8.43786 4.68696 8.4375C5.03214 8.43715 5.31225 8.71669 5.3126 9.06187C5.31295 9.40704 5.03341 9.68715 4.68823 9.6875C4.09511 9.6881 3.51406 9.5199 3.01298 9.20254C2.51191 8.88518 2.11149 8.43177 1.85853 7.8953C1.60557 7.35882 1.5105 6.76144 1.58444 6.17294C1.65837 5.58444 1.89826 5.02914 2.27608 4.57192C2.65389 4.11469 3.15402 3.77443 3.71803 3.59089C4.28204 3.40735 4.88663 3.3881 5.46117 3.53541C6.03571 3.68272 6.55647 3.99049 6.96259 4.42276C7.36871 4.85503 7.64343 5.39396 7.75464 5.97656C7.81936 6.31562 7.59697 6.64294 7.25791 6.70766C6.91885 6.77239 6.59153 6.54999 6.52681 6.21094C6.46008 5.86137 6.29525 5.53802 6.05158 5.27866C5.80791 5.01929 5.49545 4.83463 5.15073 4.74625Z" fill="#FFBF42"/>
<path fill-rule="evenodd" clip-rule="evenodd" d="M15.8952 4.77953C15.5568 4.66941 15.194 4.65786 14.8493 4.74625C14.5046 4.83463 14.1921 5.01929 13.9485 5.27866C13.7048 5.53802 13.5399 5.86137 13.4732 6.21094C13.4085 6.54999 13.0812 6.77239 12.7421 6.70766C12.4031 6.64294 12.1807 6.31562 12.2454 5.97656C12.3566 5.39396 12.6313 4.85503 13.0374 4.42276C13.4436 3.99049 13.9643 3.68272 14.5389 3.53541C15.1134 3.3881 15.718 3.40735 16.282 3.59089C16.846 3.77443 17.3461 4.11469 17.724 4.57192C18.1018 5.02914 18.3417 5.58444 18.4156 6.17294C18.4895 6.76144 18.3945 7.35882 18.1415 7.8953C17.8885 8.43177 17.4881 8.88518 16.987 9.20254C16.486 9.5199 15.9049 9.6881 15.3118 9.6875C14.9666 9.68715 14.6871 9.40704 14.6874 9.06187C14.6878 8.71669 14.9679 8.43715 15.3131 8.4375C15.6689 8.43786 16.0176 8.33694 16.3182 8.14652C16.6189 7.95611 16.8591 7.68406 17.0109 7.36218C17.1627 7.04029 17.2197 6.68186 17.1753 6.32876C17.131 5.97567 16.987 5.64249 16.7604 5.36815C16.5337 5.09382 16.2336 4.88966 15.8952 4.77953Z" fill="#FFBF42"/>
</svg>
