<svg width="15" height="15" viewBox="0 0 15 15" fill="none" xmlns="http://www.w3.org/2000/svg">
<path fill-rule="evenodd" clip-rule="evenodd" d="M10.4173 5.77019C10.596 5.9575 10.589 6.25422 10.4017 6.43292L6.96224 9.71417C6.78101 9.88705 6.4959 9.88693 6.31482 9.71389L4.59802 8.07327C4.41086 7.89441 4.40413 7.59769 4.58299 7.41052C4.76185 7.22336 5.05857 7.21663 5.24573 7.39549L6.63895 8.72689L9.75456 5.75459C9.94188 5.57589 10.2386 5.58287 10.4173 5.77019Z" fill="#0F3A7D"/>
<path fill-rule="evenodd" clip-rule="evenodd" d="M1.875 2.8125C1.875 2.29473 2.29473 1.875 2.8125 1.875H12.1875C12.7053 1.875 13.125 2.29473 13.125 2.8125V12.1875C13.125 12.7053 12.7053 13.125 12.1875 13.125H2.8125C2.29473 13.125 1.875 12.7053 1.875 12.1875V2.8125ZM12.1875 2.8125H2.8125V12.1875H12.1875V2.8125Z" fill="#0F3A7D"/>
</svg>
