<svg width="36" height="37" viewBox="0 0 36 37" fill="none" xmlns="http://www.w3.org/2000/svg">
<ellipse cx="18" cy="18.5" rx="18" ry="18.5" fill="#1988D3"/>
<path d="M13.0353 30.375H13.0276C11.4395 30.375 10.1303 30.1234 9.13725 29.6269C8.33555 29.2255 8.00743 28.7957 7.92541 28.6732C7.77775 28.4511 7.73838 28.1733 7.82041 27.9196C7.90244 27.6659 8.09603 27.4624 8.34539 27.3695C8.37383 27.3585 10.9539 26.3676 12.6218 24.4809C11.9076 23.9767 10.8719 23.1127 9.91707 21.8166C8.41867 19.7823 6.83278 16.2485 7.79197 10.9691C7.84994 10.6487 8.08181 10.3873 8.39242 10.2899C8.70304 10.1926 9.04209 10.2768 9.27178 10.5065C9.31006 10.5448 12.951 14.1344 17.4025 15.2937V14.6254C17.4025 13.2244 17.9625 11.8999 18.9785 10.898C19.9924 9.89728 21.3191 9.35479 22.7191 9.37558C24.5817 9.39745 26.2846 10.4102 27.2033 12.0005H30.5271C30.8815 12.0005 31.1998 12.2138 31.3354 12.5408C31.471 12.8678 31.3955 13.2441 31.1462 13.4945L27.8431 16.7976C27.5271 20.455 25.8854 23.8389 23.2003 26.3556C20.4354 28.9477 16.825 30.375 13.0353 30.375ZM10.488 28.2882C11.0545 28.4719 11.8726 28.625 13.0276 28.625H13.0342C19.9312 28.625 25.6787 23.2352 26.1216 16.3524C26.1348 16.1402 26.2255 15.9401 26.3765 15.7902L28.4152 13.7515H26.6663C26.3185 13.7515 26.0035 13.5459 25.8646 13.2266C25.3145 11.9666 24.072 11.1419 22.6972 11.1266C22.6819 11.1266 22.6655 11.1266 22.6502 11.1266C21.7391 11.1266 20.874 11.4875 20.2079 12.1449C19.5276 12.8153 19.1535 13.6969 19.1535 14.6265V16.3765C19.1535 16.6335 19.0398 16.8774 18.844 17.0436C18.6482 17.2099 18.3879 17.281 18.1342 17.2394C14.3346 16.6062 11.0261 14.2875 9.30021 12.87C9.03553 15.9368 9.71473 18.5913 11.3269 20.7787C12.717 22.6654 14.2788 23.4605 14.2952 23.4682C14.5194 23.5808 14.6857 23.7831 14.7491 24.026C14.8126 24.2688 14.771 24.5269 14.631 24.7358C13.5023 26.4289 11.748 27.6046 10.488 28.2882Z" fill="white"/>
</svg>
