<svg width="40" height="40" viewBox="0 0 40 40" fill="none" xmlns="http://www.w3.org/2000/svg">
<circle cx="20" cy="20" r="20" fill="#A556E1"/>
<path fill-rule="evenodd" clip-rule="evenodd" d="M20 16.1863C17.8938 16.1863 16.1865 17.8937 16.1865 19.9999C16.1865 22.1061 17.8938 23.8135 20 23.8135C22.1062 23.8135 23.8136 22.1061 23.8136 19.9999C23.8136 17.8937 22.1062 16.1863 20 16.1863ZM14.2797 19.9999C14.2797 16.8406 16.8408 14.2796 20 14.2796C23.1593 14.2796 25.7204 16.8406 25.7204 19.9999C25.7204 23.1591 23.1593 25.7202 20 25.7202C16.8408 25.7202 14.2797 23.1591 14.2797 19.9999Z" fill="white"/>
<path fill-rule="evenodd" clip-rule="evenodd" d="M14.7564 9.9893C12.1237 9.9893 9.98942 12.1235 9.98942 14.7562V25.2435C9.98942 27.8762 12.1237 30.0105 14.7564 30.0105H25.2437C27.8764 30.0105 30.0106 27.8762 30.0106 25.2435V14.7562C30.0106 12.1235 27.8764 9.9893 25.2437 9.9893H14.7564ZM8.08264 14.7562C8.08264 11.0704 11.0706 8.08252 14.7564 8.08252H25.2437C28.9295 8.08252 31.9174 11.0704 31.9174 14.7562V25.2435C31.9174 28.9293 28.9295 31.9173 25.2437 31.9173H14.7564C11.0706 31.9173 8.08264 28.9293 8.08264 25.2435V14.7562Z" fill="white"/>
<path d="M26.197 15.2329C26.9869 15.2329 27.6271 14.5927 27.6271 13.8029C27.6271 13.013 26.9869 12.3728 26.197 12.3728C25.4072 12.3728 24.767 13.013 24.767 13.8029C24.767 14.5927 25.4072 15.2329 26.197 15.2329Z" fill="white"/>
</svg>
