<svg width="37" height="36" viewBox="0 0 37 36" fill="none" xmlns="http://www.w3.org/2000/svg">
<ellipse cx="18.5" cy="18" rx="18.5" ry="18" fill="#FF0000"/>
<path fill-rule="evenodd" clip-rule="evenodd" d="M15.8371 13.7287C16.1216 13.5764 16.4669 13.5931 16.7354 13.7721L21.9854 17.2721C22.2288 17.4344 22.375 17.7076 22.375 18.0002C22.375 18.2927 22.2288 18.5659 21.9854 18.7282L16.7354 22.2282C16.4669 22.4072 16.1216 22.4239 15.8371 22.2716C15.5526 22.1194 15.375 21.8229 15.375 21.5002V14.5002C15.375 14.1775 15.5526 13.881 15.8371 13.7287ZM17.125 16.1351V19.8652L19.9226 18.0002L17.125 16.1351Z" fill="white"/>
<path fill-rule="evenodd" clip-rule="evenodd" d="M17.9987 8.41898L17.9839 8.41895L17.929 8.41897C17.8813 8.41908 17.8119 8.41942 17.7227 8.42037C17.5445 8.42226 17.2874 8.42655 16.968 8.43614C16.3298 8.45529 15.4402 8.49567 14.4332 8.58069C12.4414 8.74886 9.90562 9.09786 7.95332 9.84382L7.94046 9.84885C7.55697 10.0024 7.21492 10.2438 6.94191 10.5538C6.66889 10.8638 6.47255 11.2336 6.36872 11.6334L6.36787 11.6367C6.09539 12.703 5.75 14.6802 5.75 18.0002C5.75 21.3203 6.09539 23.2975 6.36787 24.3638L6.36872 24.3671C6.47255 24.7669 6.66889 25.1367 6.94191 25.4467C7.21492 25.7567 7.55697 25.9981 7.94046 26.1516L7.95332 26.1567C9.90562 26.9026 12.4414 27.2516 14.4332 27.4198C15.4402 27.5048 16.3298 27.5452 16.968 27.5644C17.2874 27.5739 17.5445 27.5782 17.7227 27.5801C17.8119 27.5811 17.8813 27.5814 17.929 27.5815L17.9839 27.5815L17.9987 27.5815H18.0013L18.0161 27.5815L18.071 27.5815C18.1187 27.5814 18.1881 27.5811 18.2773 27.5801C18.4555 27.5782 18.7126 27.5739 19.032 27.5644C19.6702 27.5452 20.5598 27.5048 21.5668 27.4198C23.5586 27.2516 26.0944 26.9026 28.0467 26.1567L28.0595 26.1516C28.443 25.9981 28.7851 25.7567 29.0581 25.4467C29.3311 25.1367 29.5274 24.7669 29.6313 24.3671L29.6321 24.3638C29.9046 23.2975 30.25 21.3203 30.25 18.0002C30.25 14.6802 29.9046 12.703 29.6321 11.6367L29.6313 11.6334C29.5274 11.2336 29.3311 10.8638 29.0581 10.5538C28.7851 10.2438 28.443 10.0024 28.0595 9.84885L28.0467 9.84382C26.0944 9.09786 23.5586 8.74886 21.5668 8.58069C20.5598 8.49567 19.6702 8.45529 19.032 8.43614C18.7126 8.42655 18.4555 8.42226 18.2773 8.42037C18.1881 8.41942 18.1187 8.41908 18.071 8.41897L18.0161 8.41895L18.0013 8.41898H17.9987ZM17.9954 25.8315L18.0047 25.8315L18.0075 25.8315L18.019 25.8316L18.0671 25.8315C18.1101 25.8314 18.1747 25.8311 18.2587 25.8302C18.4268 25.8284 18.6725 25.8244 18.9795 25.8151C19.5939 25.7967 20.451 25.7578 21.4196 25.676C23.3761 25.5108 25.7036 25.177 27.4147 24.5248C27.5413 24.4731 27.6544 24.3927 27.7448 24.29C27.8363 24.1862 27.9021 24.0624 27.9371 23.9286C28.1677 23.0254 28.5 21.1967 28.5 18.0002C28.5 14.8038 28.1677 12.9751 27.9371 12.0719C27.9021 11.9381 27.8363 11.8143 27.7448 11.7105C27.6544 11.6077 27.5413 11.5274 27.4147 11.4757C25.7036 10.8235 23.3761 10.4897 21.4196 10.3245C20.451 10.2427 19.5939 10.2038 18.9795 10.1853C18.6725 10.1761 18.4268 10.1721 18.2587 10.1703C18.1747 10.1694 18.1101 10.1691 18.0671 10.169L18.019 10.1689L18.0075 10.169L18.005 10.169L17.9953 10.169L17.9925 10.169L17.981 10.1689L17.9329 10.169C17.8899 10.1691 17.8253 10.1694 17.7413 10.1703C17.5732 10.1721 17.3275 10.1761 17.0205 10.1853C16.4061 10.2038 15.549 10.2427 14.5804 10.3245C12.6239 10.4897 10.2964 10.8235 8.58534 11.4757C8.45866 11.5274 8.34564 11.6077 8.25518 11.7105C8.16374 11.8143 8.09788 11.9381 8.06289 12.0719C7.83227 12.9751 7.5 14.8038 7.5 18.0002C7.5 21.1967 7.83227 23.0254 8.06289 23.9286C8.09788 24.0624 8.16373 24.1862 8.25518 24.29C8.34564 24.3927 8.45866 24.4731 8.58533 24.5248C10.2964 25.177 12.6239 25.5108 14.5804 25.676C15.549 25.7578 16.4061 25.7967 17.0205 25.8151C17.3275 25.8244 17.5732 25.8284 17.7413 25.8302C17.8253 25.8311 17.8899 25.8314 17.9329 25.8315L17.981 25.8316L17.9925 25.8315L17.9954 25.8315Z" fill="white"/>
</svg>
