<svg width="15" height="15" viewBox="0 0 15 15" fill="none" xmlns="http://www.w3.org/2000/svg">
<path d="M12.5367 4.45312H9.375V3.51562C9.375 2.22305 8.32383 1.17188 7.03125 1.17188C6.85371 1.17188 6.69141 1.27207 6.61172 1.43086L4.39805 5.85938H1.875C1.3582 5.85938 0.9375 6.28008 0.9375 6.79688V11.9531C0.9375 12.4699 1.3582 12.8906 1.875 12.8906H11.8324C12.5361 12.8871 13.1332 12.3586 13.2211 11.6596L13.9236 6.03867C13.9318 5.97656 13.9359 5.91328 13.9359 5.85C13.9342 5.07891 13.3061 4.45312 12.5367 4.45312ZM1.87441 6.79688H4.21875V11.9531H1.875V6.79688H1.87441ZM12.9932 5.91855L12.29 11.543C12.2607 11.7756 12.0615 11.952 11.8295 11.9531H5.15625V6.43887L7.30723 2.13633C7.95117 2.26523 8.4375 2.83418 8.4375 3.51562V4.92188C8.4375 5.18086 8.64727 5.39062 8.90625 5.39062H12.5355C12.6586 5.39062 12.7746 5.43867 12.8619 5.52539C12.9498 5.6127 12.9979 5.72871 12.9984 5.85234C12.9984 5.87344 12.9973 5.89395 12.9937 5.91797L12.9932 5.91855Z" fill="black"/>
</svg>
