<svg width="37" height="37" viewBox="0 0 37 37" fill="none" xmlns="http://www.w3.org/2000/svg">
<circle cx="18.5" cy="18.5" r="18.5" fill="black"/>
<path fill-rule="evenodd" clip-rule="evenodd" d="M18.6562 7.0625C18.6562 6.57925 19.034 6.1875 19.5 6.1875H23.7188C24.1847 6.1875 24.5625 6.57925 24.5625 7.0625C24.5625 8.45489 25.0959 9.79024 26.0453 10.7748C26.9947 11.7594 28.2823 12.3125 29.625 12.3125C30.091 12.3125 30.4688 12.7043 30.4688 13.1875V17.5625C30.4688 18.0455 30.0914 18.4372 29.6256 18.4375C27.8555 18.4388 26.1195 17.9955 24.5625 17.156V21.0621C24.5632 22.6434 24.1288 24.1926 23.3105 25.5269C22.4922 26.8614 21.3237 27.9261 19.9423 28.596C18.5608 29.2659 17.0238 29.5132 15.5116 29.309C13.9993 29.1047 12.5747 28.4573 11.4048 27.4428C10.235 26.4282 9.36845 25.0887 8.90701 23.5813C8.44556 22.074 8.40833 20.4614 8.79969 18.9329C9.19104 17.4044 9.99474 16.0233 11.1164 14.9519C12.2381 13.8805 13.6313 13.1631 15.1324 12.884C15.3783 12.8383 15.6311 12.908 15.8227 13.0742C16.0143 13.2405 16.125 13.4862 16.125 13.7453V18.2953C16.125 18.6333 15.9373 18.941 15.6429 19.0859C15.3018 19.2537 15.0104 19.5133 14.7991 19.8376C14.5877 20.162 14.4642 20.5392 14.4414 20.93C14.4185 21.3207 14.4972 21.7107 14.6692 22.0591C14.8413 22.4076 15.1003 22.7018 15.4193 22.911C15.7383 23.1203 16.1057 23.2369 16.483 23.2488C16.8603 23.2607 17.2338 23.1673 17.5644 22.9785C17.8951 22.7896 18.1708 22.5122 18.3629 22.1752C18.5549 21.8382 18.6562 21.4539 18.6562 21.0625V7.0625ZM20.3437 7.9375V21.0625C20.3437 21.7671 20.1613 22.4589 19.8156 23.0655C19.47 23.6722 18.9736 24.1715 18.3784 24.5114C17.7833 24.8513 17.111 25.0193 16.4319 24.998C15.7527 24.9767 15.0915 24.7667 14.5173 24.39C13.943 24.0134 13.4768 23.4838 13.1671 22.8566C12.8575 22.2294 12.7158 21.5275 12.757 20.8241C12.7981 20.1208 13.0204 19.4417 13.4008 18.8579C13.6773 18.4336 14.0298 18.0708 14.4375 17.7884V14.8789C13.6336 15.1736 12.892 15.6351 12.2597 16.2391C11.3741 17.085 10.7396 18.1753 10.4307 19.382C10.1217 20.5887 10.1511 21.8618 10.5154 23.0518C10.8797 24.2418 11.5638 25.2994 12.4874 26.1003C13.4109 26.9013 14.5357 27.4124 15.7295 27.5736C16.9234 27.7349 18.1368 27.5396 19.2274 27.0107C20.318 26.4819 21.2405 25.6413 21.8866 24.5878C22.5327 23.5343 22.8756 22.3115 22.875 21.0629V15.5938C22.875 15.2656 23.052 14.965 23.3336 14.8152C23.6151 14.6654 23.9538 14.6916 24.2109 14.883C25.5592 15.8869 27.1383 16.4939 28.7812 16.6483V14.0076C27.3022 13.8144 25.9174 13.117 24.852 12.0122C23.7867 10.9074 23.1142 9.47138 22.9279 7.9375H20.3437Z" fill="white"/>
</svg>
