<svg width="40" height="40" viewBox="0 0 40 40" fill="none" xmlns="http://www.w3.org/2000/svg">
<circle cx="20" cy="20" r="20" fill="#23A455"/>
<path d="M30.6461 13.6848C27.1657 7.81189 19.5556 5.86579 13.6838 9.34685C7.93123 12.7564 5.94737 20.1297 9.14061 25.9501L8.1314 29.5146C8.03012 29.8626 8.03012 30.2297 8.1314 30.5776C8.42451 31.5811 9.479 32.1579 10.4739 31.8671L14.0449 30.8553C15.8988 31.8719 17.947 32.3807 19.9952 32.3807C22.1781 32.3807 24.3609 31.8039 26.3078 30.6491C29.152 28.9628 31.1704 26.2695 31.989 23.0649C32.8087 19.8604 32.3309 16.5294 30.6449 13.6836L30.6461 13.6848ZM30.1433 22.593C29.4498 25.3042 27.7436 27.5828 25.3368 29.0093C22.0434 30.9614 17.9506 30.9614 14.6561 29.0093C14.5072 28.9211 14.3392 28.8758 14.17 28.8758C14.083 28.8758 13.996 28.8878 13.9102 28.9116L9.96751 30.0282L11.084 26.0848C11.1554 25.8333 11.1197 25.564 10.9863 25.3388C8.04204 20.3704 9.68751 13.9315 14.6561 10.9867C19.6235 8.0419 26.0612 9.68769 29.0054 14.6572C30.4317 17.0645 30.8356 19.883 30.1421 22.593H30.1433Z" fill="white"/>
<path d="M26.2566 21.7779L23.8224 20.3823C23.2266 20.0475 22.4914 20.057 21.9017 20.4074L20.4826 21.2571C19.7569 20.8388 19.1552 20.2369 18.737 19.5112L19.5877 18.0894C19.9369 17.5019 19.9452 16.7666 19.6068 16.1624L18.2151 13.736C17.9006 13.1747 17.3048 12.8279 16.6709 12.8351C14.3141 12.8351 12.3899 14.7526 12.3815 17.1098V17.1635C12.3887 19.9616 13.4848 22.5894 15.4675 24.5629C17.4442 26.5305 20.0667 27.6126 22.8537 27.6126C22.8644 27.6126 22.8751 27.6126 22.8846 27.6126C25.2307 27.5959 27.1467 25.6725 27.155 23.3295C27.1598 22.686 26.8154 22.0925 26.2542 21.7779H26.2566ZM22.8751 25.7058H22.8561C20.5755 25.7058 18.4308 24.8204 16.8139 23.2115C15.1923 21.5967 14.2951 19.448 14.2891 17.1575V17.117C14.2939 15.8347 15.3186 14.7871 16.5971 14.743L17.9506 17.1027L17.9518 17.1122L16.8318 18.9832C16.6721 19.2502 16.6519 19.5791 16.7806 19.8639C17.4502 21.3548 18.6405 22.5441 20.1311 23.2151C20.4158 23.3426 20.7447 23.3235 21.0116 23.1638L22.8835 22.0412L25.251 23.3986C25.2045 24.669 24.156 25.6963 22.8763 25.707L22.8751 25.7058Z" fill="white"/>
</svg>
