<svg width="36" height="36" viewBox="0 0 36 36" fill="none" xmlns="http://www.w3.org/2000/svg">
<circle cx="18" cy="18" r="18" fill="#0088E4"/>
<path fill-rule="evenodd" clip-rule="evenodd" d="M27.5165 8.1652C27.812 8.05064 28.133 8.01848 28.4454 8.07215C28.7577 8.12582 29.0496 8.2633 29.29 8.46993C29.5303 8.67655 29.71 8.94456 29.8098 9.24533C29.9097 9.54611 29.9261 9.86837 29.8571 10.1777L29.856 10.1826L25.7435 28.142C25.6756 28.4378 25.5318 28.7114 25.3264 28.9349C25.121 29.1584 24.8611 29.3247 24.572 29.4173C24.283 29.51 23.9748 29.5259 23.6778 29.4635C23.3813 29.4011 23.1061 29.2629 22.8791 29.0624L22.8777 29.0612L13.2229 20.5662L7.62302 19.442L7.61942 19.4413C5.93742 19.0963 5.67895 16.7403 7.32285 16.0961L27.5129 8.1666L27.5165 8.1652ZM7.96688 17.7232L7.96741 17.7262L7.97012 17.7268L7.97107 17.727L13.7972 18.8966C13.9477 18.9268 14.0876 18.9961 14.2029 19.0976L24.0357 27.7491L24.0377 27.7509L28.149 9.79688L7.96688 17.7232Z" fill="white"/>
<path fill-rule="evenodd" clip-rule="evenodd" d="M29.2203 8.49058C29.5033 8.88233 29.4151 9.42928 29.0233 9.71223L14.1374 20.4638C13.7456 20.7467 13.1987 20.6585 12.9157 20.2668C12.6328 19.875 12.721 19.3281 13.1127 19.0451L27.9987 8.29357C28.3904 8.01062 28.9374 8.09883 29.2203 8.49058Z" fill="white"/>
<path fill-rule="evenodd" clip-rule="evenodd" d="M13.625 18.8795C14.1082 18.8795 14.5 19.2712 14.5 19.7545L14.5 26.8733L14.5047 26.8686L17.9172 23.4561C18.2589 23.1144 18.8129 23.1144 19.1547 23.4561C19.4964 23.7978 19.4964 24.3518 19.1547 24.6935L15.7441 28.1041C15.501 28.3498 15.1906 28.518 14.852 28.5876C14.5121 28.6574 14.1591 28.6245 13.8379 28.4932C13.5166 28.3619 13.2417 28.1381 13.048 27.8502C12.8543 27.5623 12.7506 27.2233 12.75 26.8763L12.75 19.7545C12.75 19.2712 13.1418 18.8795 13.625 18.8795Z" fill="white"/>
</svg>
