<svg width="36" height="37" viewBox="0 0 36 37" fill="none" xmlns="http://www.w3.org/2000/svg">
<ellipse cx="18" cy="18.5" rx="18" ry="18.5" fill="#4FB4F8"/>
<path d="M18 6.625C11.7262 6.625 6.625 11.7262 6.625 18C6.625 24.2738 11.7262 29.375 18 29.375C24.2738 29.375 29.375 24.2738 29.375 18C29.375 11.7262 24.2738 6.625 18 6.625ZM18.875 27.5813V20.625H21.5C21.9812 20.625 22.375 20.2312 22.375 19.75C22.375 19.2688 21.9812 18.875 21.5 18.875H18.875V16.2325C18.875 15.7687 19.0588 15.3313 19.3913 15.0075C19.715 14.6838 20.1525 14.5 20.6163 14.5H22.375C22.8563 14.5 23.25 14.1062 23.25 13.625C23.25 13.1438 22.8563 12.75 22.375 12.75H20.6163C19.6888 12.75 18.8138 13.1087 18.1575 13.765C17.4925 14.4212 17.125 15.2963 17.125 16.2238V18.875H14.5C14.0188 18.875 13.625 19.2688 13.625 19.75C13.625 20.2312 14.0188 20.625 14.5 20.625H17.125V27.5813C12.225 27.135 8.375 23.005 8.375 18C8.375 12.6887 12.6887 8.375 18 8.375C23.3113 8.375 27.625 12.6887 27.625 18C27.625 23.0138 23.775 27.1438 18.875 27.5813Z" fill="white"/>
</svg>
