<svg width="15" height="15" viewBox="0 0 15 15" fill="none" xmlns="http://www.w3.org/2000/svg">
<path fill-rule="evenodd" clip-rule="evenodd" d="M2.8125 13.5938C2.8125 13.3349 3.02237 13.125 3.28125 13.125H11.7188C11.9776 13.125 12.1875 13.3349 12.1875 13.5938C12.1875 13.8526 11.9776 14.0625 11.7188 14.0625H3.28125C3.02237 14.0625 2.8125 13.8526 2.8125 13.5938Z" fill="black"/>
<path fill-rule="evenodd" clip-rule="evenodd" d="M7.5 4.6875C6.72335 4.6875 6.09375 5.3171 6.09375 6.09375C6.09375 6.8704 6.72335 7.5 7.5 7.5C8.27665 7.5 8.90625 6.8704 8.90625 6.09375C8.90625 5.3171 8.27665 4.6875 7.5 4.6875ZM5.15625 6.09375C5.15625 4.79933 6.20558 3.75 7.5 3.75C8.79442 3.75 9.84375 4.79933 9.84375 6.09375C9.84375 7.38817 8.79442 8.4375 7.5 8.4375C6.20558 8.4375 5.15625 7.38817 5.15625 6.09375Z" fill="black"/>
<path fill-rule="evenodd" clip-rule="evenodd" d="M7.5 1.875C6.38112 1.875 5.30806 2.31947 4.51689 3.11064C3.72572 3.90181 3.28125 4.97487 3.28125 6.09375C3.28125 8.03435 4.36493 9.8014 5.50997 11.1182C6.07677 11.77 6.64477 12.2955 7.07116 12.658C7.23979 12.8013 7.38574 12.9187 7.5 13.0078C7.61426 12.9187 7.76021 12.8013 7.92884 12.658C8.35523 12.2955 8.92323 11.77 9.49003 11.1182C10.6351 9.8014 11.7188 8.03435 11.7188 6.09375C11.7188 4.97487 11.2743 3.90181 10.4831 3.11064C9.69194 2.31947 8.61888 1.875 7.5 1.875ZM7.5 13.5938C7.23119 13.9778 7.23106 13.9777 7.23091 13.9776L7.23052 13.9773L7.22942 13.9765L7.22596 13.9741L7.21404 13.9656C7.20391 13.9584 7.18946 13.948 7.17098 13.9345C7.13402 13.9075 7.0809 13.8681 7.01394 13.8169C6.88006 13.7146 6.69057 13.5649 6.46399 13.3723C6.01148 12.9877 5.40761 12.4292 4.80253 11.7334C3.60382 10.3549 2.34375 8.3719 2.34375 6.09375C2.34375 4.72623 2.887 3.41472 3.85398 2.44773C4.82097 1.48075 6.13248 0.9375 7.5 0.9375C8.86752 0.9375 10.179 1.48075 11.146 2.44773C12.113 3.41472 12.6562 4.72623 12.6562 6.09375C12.6562 8.3719 11.3962 10.3549 10.1975 11.7334C9.59239 12.4292 8.98852 12.9877 8.53601 13.3723C8.30943 13.5649 8.11994 13.7146 7.98606 13.8169C7.9191 13.8681 7.86598 13.9075 7.82902 13.9345C7.81054 13.948 7.79609 13.9584 7.78596 13.9656L7.77404 13.9741L7.77058 13.9765L7.76948 13.9773L7.76909 13.9776C7.76894 13.9777 7.76881 13.9778 7.5 13.5938ZM7.5 13.5938L7.76909 13.9776C7.60769 14.0905 7.39231 14.0905 7.23091 13.9776L7.5 13.5938Z" fill="black"/>
</svg>
