<svg width="50" height="50" viewBox="0 0 50 50" fill="none" xmlns="http://www.w3.org/2000/svg">
<path d="M19.2816 16.4866C19.9554 15.944 20.0632 14.9588 19.5226 14.2831C18.98 13.6073 17.9948 13.4996 17.3191 14.0422C13.9638 16.7373 12.0365 20.7526 12.0326 25.0597C12.0384 28.6637 11.1943 32.2755 9.59206 35.5054C9.2062 36.281 9.5235 37.2212 10.2991 37.6051C10.5224 37.7167 10.7614 37.7696 10.9945 37.7696C11.5703 37.7696 12.1246 37.4504 12.3988 36.9C14.2165 33.2392 15.1743 29.1436 15.1665 25.0597C15.1704 21.7104 16.6688 18.5843 19.2816 16.4866Z" fill="#0F3A7D"/>
<path d="M26.1331 23.4908C25.2674 23.4908 24.5662 24.194 24.5681 25.0597C24.576 31.1512 23.0188 37.1859 20.0632 42.5135C19.644 43.2696 19.9163 44.2235 20.6743 44.6446C20.9152 44.7778 21.1757 44.8405 21.4323 44.8405C21.9827 44.8405 22.5174 44.5486 22.8034 44.0335C26.0156 38.2417 27.7098 31.6781 27.7001 25.0558C27.7001 24.192 26.9969 23.4908 26.1331 23.4908Z" fill="#0F3A7D"/>
<path d="M26.1351 17.2231C21.8142 17.2231 18.3004 20.7369 18.3004 25.0578C18.3004 25.9235 19.0016 26.6247 19.8673 26.6247C20.733 26.6247 21.4342 25.9235 21.4342 25.0578C21.4342 22.4664 23.5437 20.3569 26.1351 20.3569C28.7264 20.3569 30.8359 22.4664 30.8359 25.0617C30.8477 31.2511 29.457 37.4797 26.8147 43.0757C26.4445 43.8592 26.7795 44.7915 27.563 45.1617C27.7784 45.2635 28.0076 45.3125 28.2309 45.3125C28.8185 45.3125 29.3806 44.9815 29.6489 44.4154C32.489 38.4023 33.9835 31.7075 33.9718 25.0597C33.9718 20.7389 30.4579 17.225 26.137 17.225L26.1351 17.2231Z" fill="#0F3A7D"/>
<path d="M26.1351 4.6875C14.904 4.6875 5.7648 13.8247 5.7648 25.0617C5.77067 27.0223 5.4377 28.9516 4.77958 30.7987C4.48774 31.6135 4.91277 32.5106 5.72758 32.8024C6.54239 33.0923 7.43947 32.6692 7.72935 31.8544C8.51086 29.6666 8.90456 27.3788 8.89868 25.0597C8.89868 15.5562 16.6316 7.82335 26.1351 7.82335C35.6386 7.82335 43.3715 15.5562 43.3715 25.0597C43.3715 28.6343 43.0228 32.2246 42.3432 35.7306C42.1786 36.5807 42.7329 37.4033 43.583 37.5679C43.6848 37.5875 43.7847 37.5973 43.8827 37.5973C44.6172 37.5973 45.2733 37.0762 45.4183 36.328C46.1371 32.6261 46.5034 28.8341 46.5053 25.0597C46.5053 13.8247 37.3681 4.6875 26.1351 4.6875Z" fill="#0F3A7D"/>
<path d="M19.5559 29.79C18.7078 29.6156 17.8792 30.1621 17.7049 31.0102C17.0605 34.148 15.9264 37.1487 14.334 39.9281C13.9031 40.6783 14.1636 41.6361 14.9158 42.067C15.1606 42.208 15.4289 42.2746 15.6933 42.2746C16.2359 42.2746 16.7647 41.9906 17.0546 41.4852C18.8116 38.416 20.0632 35.1039 20.7742 31.639C20.9485 30.7908 20.402 29.9623 19.5539 29.788L19.5559 29.79Z" fill="#0F3A7D"/>
<path d="M26.1272 10.9553C25.5455 10.9592 24.9579 10.9945 24.3821 11.065C23.5222 11.1688 22.9111 11.9483 23.0129 12.8082C23.1167 13.6681 23.8963 14.2792 24.7562 14.1773C25.2145 14.1225 25.6807 14.0931 26.1351 14.0911C32.1835 14.0911 37.1037 19.0113 37.1037 25.0578C37.1037 27.0811 36.9744 29.126 36.7237 31.1336C36.616 31.9915 37.2251 32.775 38.085 32.8827C38.1516 32.8905 38.2162 32.8945 38.2808 32.8945C39.0604 32.8945 39.7342 32.3147 39.8341 31.5214C40.1005 29.3865 40.2356 27.2123 40.2376 25.0597C40.2376 17.2838 33.911 10.9572 26.1272 10.9572V10.9553Z" fill="#0F3A7D"/>
<path d="M37.47 36.0754C36.6316 35.8599 35.7777 36.3692 35.5661 37.2075C35.2684 38.3749 34.9433 39.4913 34.5985 40.5255C34.3243 41.3462 34.7689 42.2335 35.5896 42.5077C35.7542 42.5625 35.9206 42.588 36.0852 42.588C36.7413 42.588 37.3524 42.1727 37.5718 41.5166C37.94 40.4099 38.2867 39.221 38.6021 37.9792C38.8156 37.1409 38.3083 36.2869 37.47 36.0754Z" fill="#0F3A7D"/>
</svg>
