<svg width="20" height="20" viewBox="0 0 20 20" fill="none" xmlns="http://www.w3.org/2000/svg">
<path d="M10 17.5C9.89453 17.5 9.78984 17.4735 9.69453 17.4203C9.3625 17.2344 1.5625 12.8016 1.5625 7.18752C1.5625 4.60315 3.66562 2.50002 6.25 2.50002C7.75234 2.50002 9.12969 3.2094 10.0008 4.37346C11.2563 2.70002 13.5352 2.01955 15.5531 2.86096C17.3055 3.59143 18.4375 5.28987 18.4375 7.18752C18.4375 12.8016 10.6375 17.2344 10.3055 17.4203C10.2109 17.4735 10.1055 17.5 10 17.5ZM6.25 3.75002C4.35469 3.75002 2.8125 5.29221 2.8125 7.18752C2.8125 11.4969 8.59219 15.2891 10 16.1485C11.4078 15.2891 17.1875 11.4969 17.1875 7.18752C17.1875 5.79533 16.357 4.55002 15.0719 4.01408C14.2242 3.66096 13.2898 3.65862 12.4406 4.00862C11.5914 4.35862 10.9297 5.01721 10.5766 5.86487C10.4797 6.09768 10.2516 6.24924 10 6.24924C9.74844 6.24924 9.52031 6.09768 9.42344 5.86487C8.88828 4.57971 7.64219 3.74924 6.25 3.74924V3.75002Z" fill="#FFBF42"/>
</svg>
