<svg width="20" height="20" viewBox="0 0 20 20" fill="none" xmlns="http://www.w3.org/2000/svg">
<path fill-rule="evenodd" clip-rule="evenodd" d="M6.25 5.625C4.86929 5.625 3.75 6.74429 3.75 8.125C3.75 9.50571 4.86929 10.625 6.25 10.625C7.63071 10.625 8.75 9.50571 8.75 8.125C8.75 6.74429 7.63071 5.625 6.25 5.625ZM2.5 8.125C2.5 6.05393 4.17893 4.375 6.25 4.375C8.32107 4.375 10 6.05393 10 8.125C10 10.1961 8.32107 11.875 6.25 11.875C4.17893 11.875 2.5 10.1961 2.5 8.125Z" fill="#FFBF42"/>
<path fill-rule="evenodd" clip-rule="evenodd" d="M11.25 6.25C11.25 5.90482 11.5298 5.625 11.875 5.625H19.375C19.7202 5.625 20 5.90482 20 6.25C20 6.59518 19.7202 6.875 19.375 6.875H11.875C11.5298 6.875 11.25 6.59518 11.25 6.25Z" fill="#FFBF42"/>
<path fill-rule="evenodd" clip-rule="evenodd" d="M11.25 10C11.25 9.65482 11.5298 9.375 11.875 9.375H19.375C19.7202 9.375 20 9.65482 20 10C20 10.3452 19.7202 10.625 19.375 10.625H11.875C11.5298 10.625 11.25 10.3452 11.25 10Z" fill="#FFBF42"/>
<path fill-rule="evenodd" clip-rule="evenodd" d="M13.125 13.75C13.125 13.4048 13.4048 13.125 13.75 13.125H19.375C19.7202 13.125 20 13.4048 20 13.75C20 14.0952 19.7202 14.375 19.375 14.375H13.75C13.4048 14.375 13.125 14.0952 13.125 13.75Z" fill="#FFBF42"/>
<path fill-rule="evenodd" clip-rule="evenodd" d="M6.25015 11.8652C5.27871 11.8652 4.33491 12.1885 3.56752 12.7842C2.80014 13.3799 2.25282 14.214 2.01187 15.1551C1.92625 15.4895 1.58577 15.6911 1.25138 15.6055C0.916985 15.5199 0.715314 15.1794 0.800932 14.845C1.11073 13.6351 1.81442 12.5626 2.80106 11.7968C3.78769 11.0309 5.00116 10.6152 6.25015 10.6152C7.49914 10.6152 8.71261 11.0309 9.69925 11.7968C10.6859 12.5626 11.3896 13.6351 11.6994 14.845C11.785 15.1794 11.5833 15.5199 11.2489 15.6055C10.9145 15.6911 10.574 15.4895 10.4884 15.1551C10.2475 14.214 9.70016 13.3799 8.93278 12.7842C8.16539 12.1885 7.22159 11.8652 6.25015 11.8652Z" fill="#FFBF42"/>
</svg>
