<svg width="50" height="49" viewBox="0 0 50 49" fill="none" xmlns="http://www.w3.org/2000/svg">
<path fill-rule="evenodd" clip-rule="evenodd" d="M20.4936 7.10314C19.8405 7.64344 19.0581 8.21238 18.1635 8.56792C17.2621 8.92614 16.2884 9.04815 15.4314 9.10197C14.8702 9.13721 14.2441 9.14675 13.6734 9.15545C13.4026 9.15958 13.1442 9.16352 12.9113 9.16992C11.1947 9.2171 10.3209 9.41874 9.85644 9.86256C9.39455 10.3039 9.19201 11.1139 9.14841 12.7439C9.14283 12.9526 9.1395 13.1817 9.13601 13.4217C9.12791 13.9787 9.11895 14.5953 9.07896 15.1571C9.01982 15.9879 8.88476 16.9252 8.49978 17.8035C8.11882 18.6726 7.52309 19.4272 6.95125 20.0601C6.56114 20.4919 6.11112 20.9408 5.70273 21.3481C5.52893 21.5214 5.36268 21.6872 5.21178 21.841C4.66009 22.4033 4.23378 22.8806 3.94372 23.3302C3.66088 23.7686 3.57143 24.0844 3.57143 24.3317C3.57143 24.5767 3.66185 24.8976 3.95086 25.3465C4.2456 25.8043 4.67771 26.2906 5.23114 26.8571C5.38934 27.019 5.56484 27.1945 5.74818 27.3779C6.15047 27.7803 6.59051 28.2204 6.96841 28.6374C7.53389 29.2615 8.12935 30.009 8.50146 30.8638C8.87637 31.725 9.00407 32.6553 9.0604 33.4742C9.09728 34.0104 9.10727 34.6086 9.11637 35.1539C9.12069 35.4127 9.12481 35.6595 9.13152 35.8821C9.18089 37.5222 9.39194 38.357 9.85644 38.8009C10.3183 39.2422 11.1661 39.4357 12.8721 39.4774C13.0906 39.4827 13.3303 39.4859 13.5816 39.4892C14.1645 39.4969 14.8098 39.5055 15.3977 39.5437C16.2673 39.6002 17.2483 39.7293 18.1675 40.0971C19.0771 40.4611 19.8669 41.0303 20.5293 41.5767C20.9812 41.9494 21.451 42.3794 21.8773 42.7696C22.0587 42.9356 22.2322 43.0945 22.3932 43.2387C22.9817 43.7658 23.4813 44.1731 23.9518 44.4503C24.4107 44.7205 24.7412 44.806 25 44.806C25.2564 44.806 25.5923 44.7196 26.0621 44.4434C26.5412 44.1618 27.0502 43.749 27.6431 43.2202C27.8125 43.069 27.9963 42.9013 28.1882 42.7262C28.6093 42.3418 29.0699 41.9213 29.5064 41.5603C30.1595 41.02 30.9419 40.451 31.8365 40.0955C32.7379 39.7373 33.7116 39.6153 34.5686 39.5614C35.1298 39.5262 35.7559 39.5167 36.3266 39.508C36.5974 39.5038 36.8557 39.4999 37.0887 39.4935C38.8053 39.4463 39.6791 39.2447 40.1436 38.8009C40.6055 38.3595 40.808 37.5495 40.8516 35.9195C40.8572 35.7107 40.8605 35.4817 40.864 35.2416C40.8721 34.6846 40.8811 34.0681 40.921 33.5063C40.9802 32.6755 41.1152 31.7382 41.5002 30.8599C41.8812 29.9908 42.4769 29.2362 43.0487 28.6033C43.4389 28.1715 43.8889 27.7227 44.2972 27.3154C44.4711 27.142 44.6373 26.9762 44.7882 26.8224C45.3399 26.2602 45.7662 25.7828 46.0563 25.3332C46.3391 24.8948 46.4286 24.579 46.4286 24.3317C46.4286 24.0867 46.3382 23.7658 46.0491 23.3169C45.7544 22.8591 45.3223 22.3728 44.7689 21.8063C44.6107 21.6444 44.4352 21.4689 44.2518 21.2855C43.8495 20.8832 43.4095 20.4431 43.0316 20.026C42.4661 19.402 41.8707 18.6544 41.4985 17.7996C41.1236 16.9384 40.9959 16.0081 40.9396 15.1892C40.9027 14.653 40.8927 14.0548 40.8836 13.5096C40.8793 13.2508 40.8752 13.004 40.8685 12.7814C40.8191 11.1413 40.6081 10.3064 40.1436 9.86256C39.6817 9.42124 38.8339 9.22771 37.1279 9.18606C36.9094 9.18073 36.6698 9.17755 36.4185 9.17421C35.8355 9.16647 35.1902 9.15791 34.6023 9.1197C33.7327 9.0632 32.7517 8.93415 31.8325 8.56631C30.9229 8.20232 30.1331 7.63312 29.4707 7.08675C29.0188 6.71401 28.549 6.28403 28.1227 5.89383C27.9413 5.72777 27.7677 5.56892 27.6068 5.42475C27.0183 4.89763 26.5187 4.4903 26.0482 4.21315C25.5893 3.94291 25.2588 3.85745 25 3.85745C24.7436 3.85745 24.4077 3.94384 23.9379 4.21998C23.4588 4.50159 22.9498 4.91446 22.3569 5.44324C22.1875 5.5944 22.0037 5.76208 21.8118 5.93726C21.3907 6.32163 20.9301 6.74207 20.4936 7.10314ZM22.0666 1.31353C22.8747 0.838538 23.8613 0.445068 25 0.445068C26.1363 0.445068 27.1171 0.834136 27.9223 1.30835C28.7157 1.77566 29.4326 2.38272 30.0494 2.93529C30.274 3.13646 30.4813 3.32632 30.6794 3.50782C31.069 3.86473 31.4232 4.18927 31.8045 4.50372C32.3614 4.96307 32.816 5.26029 33.2121 5.41882C33.5987 5.57351 34.1244 5.66839 34.8446 5.71519C35.3363 5.74715 35.8131 5.75322 36.3412 5.75995C36.6167 5.76347 36.9063 5.76716 37.2192 5.7748C38.7889 5.81312 41.0773 5.92885 42.6689 7.44964C44.258 8.96794 44.3929 11.1722 44.4384 12.6832C44.4482 13.0061 44.4528 13.3015 44.4573 13.5816C44.4649 14.0681 44.4719 14.5082 44.5033 14.9654C44.5509 15.6574 44.6465 16.1454 44.7961 16.4892C44.9485 16.8393 45.2487 17.2595 45.7317 17.7924C46.0541 18.1483 46.3853 18.4791 46.7497 18.8432C46.9485 19.0417 47.1571 19.2501 47.3796 19.4778C47.9618 20.0737 48.5997 20.7657 49.0911 21.5289C49.5882 22.301 50 23.2437 50 24.3317C50 25.4174 49.5928 26.3546 49.0965 27.1238C48.6074 27.8819 47.972 28.5669 47.3937 29.1563C47.1832 29.3708 46.9845 29.5689 46.7945 29.7581C46.421 30.1304 46.0813 30.4689 45.7522 30.8331C45.2714 31.3652 44.9603 31.7996 44.7944 32.1781C44.6325 32.5475 44.5332 33.0498 44.4842 33.7379C44.4508 34.2077 44.4444 34.6633 44.4374 35.1678C44.4337 35.4311 44.4298 35.7077 44.4218 36.0067C44.3817 37.5065 44.2606 39.693 42.6689 41.2138C41.0799 42.7321 38.7729 42.861 37.1914 42.9045C36.8535 42.9138 36.5443 42.9182 36.2512 42.9224C35.742 42.9298 35.2814 42.9364 34.8029 42.9665C34.0786 43.012 33.5679 43.1032 33.2081 43.2462C32.8416 43.3919 32.4019 43.6787 31.8441 44.1401C31.4717 44.4482 31.1254 44.7646 30.7444 45.1128C30.5366 45.3027 30.3184 45.5021 30.0801 45.7146C29.4565 46.2709 28.7322 46.8804 27.9334 47.3499C27.1253 47.8249 26.1387 48.2183 25 48.2183C23.8637 48.2183 22.8829 47.8293 22.0777 47.3551C21.2843 46.8878 20.5674 46.2807 19.9506 45.7281C19.726 45.527 19.5187 45.3371 19.3206 45.1556C18.931 44.7987 18.5768 44.4741 18.1955 44.1597C17.6386 43.7003 17.184 43.4031 16.7879 43.2446C16.4013 43.0899 15.8756 42.995 15.1554 42.9482C14.6637 42.9163 14.1869 42.9102 13.6588 42.9035C13.3833 42.8999 13.0937 42.8963 12.7808 42.8886C11.2111 42.8503 8.92274 42.7346 7.33106 41.2138C5.74199 39.6955 5.60705 37.4912 5.56156 35.9802C5.55184 35.6573 5.54718 35.3619 5.54275 35.0819C5.53506 34.5953 5.52811 34.1552 5.49666 33.698C5.44906 33.006 5.35354 32.518 5.2039 32.1743C5.05146 31.8241 4.75127 31.4039 4.26834 30.871C3.94592 30.5152 3.61468 30.1843 3.25028 29.8203C3.05151 29.6217 2.84288 29.4133 2.62043 29.1856C2.03825 28.5897 1.40033 27.8977 0.908936 27.1345C0.411809 26.3624 0 25.4197 0 24.3317C0 23.2461 0.407202 22.3089 0.903521 21.5396C1.39261 20.7815 2.02797 20.0965 2.6063 19.5071C2.81684 19.2926 3.01555 19.0945 3.20551 18.9053C3.57905 18.533 3.91872 18.1945 4.24783 17.8303C4.72859 17.2982 5.03966 16.8638 5.20558 16.4853C5.36748 16.1159 5.46678 15.6136 5.51576 14.9255C5.54921 14.4557 5.55557 14.0001 5.56261 13.4956C5.56629 13.2323 5.57015 12.9557 5.57815 12.6567C5.61826 11.1569 5.73938 8.97044 7.33106 7.44964C8.92013 5.93134 11.2271 5.80242 12.8086 5.75895C13.1465 5.74966 13.4557 5.7452 13.7488 5.74098C14.258 5.73363 14.7186 5.72699 15.1971 5.69694C15.9214 5.65146 16.4321 5.56019 16.7919 5.41721C17.1584 5.27156 17.5981 4.98474 18.1559 4.52332C18.5283 4.21526 18.8746 3.89877 19.2556 3.5506C19.4634 3.36068 19.6816 3.16134 19.9199 2.94879C20.5435 2.39254 21.2678 1.78304 22.0666 1.31353Z" fill="#0F3A7D"/>
<path fill-rule="evenodd" clip-rule="evenodd" d="M36.1135 18.0354C36.7942 18.7172 36.7676 19.7972 36.0541 20.4477L22.9514 32.391C22.261 33.0203 21.1748 33.0198 20.485 32.39L13.9448 26.4183C13.2318 25.7673 13.2062 24.6873 13.8876 24.006C14.5689 23.3248 15.6993 23.3003 16.4123 23.9513L21.7198 28.7974L33.5888 17.9786C34.3024 17.3282 35.4327 17.3536 36.1135 18.0354Z" fill="#0F3A7D"/>
</svg>
