<svg width="50" height="50" viewBox="0 0 50 50" fill="none" xmlns="http://www.w3.org/2000/svg">
<path fill-rule="evenodd" clip-rule="evenodd" d="M12.5 9.375C10.7741 9.375 9.375 10.7741 9.375 12.5V37.5C9.375 39.2259 10.7741 40.625 12.5 40.625H37.5C39.2259 40.625 40.625 39.2259 40.625 37.5V12.5C40.625 10.7741 39.2259 9.375 37.5 9.375H12.5ZM6.25 12.5C6.25 9.04822 9.04822 6.25 12.5 6.25H37.5C40.9518 6.25 43.75 9.04822 43.75 12.5V37.5C43.75 40.9518 40.9518 43.75 37.5 43.75H12.5C9.04822 43.75 6.25 40.9518 6.25 37.5V12.5Z" fill="#0F3A7D"/>
<path d="M17.9688 20.3125C19.2632 20.3125 20.3125 19.2632 20.3125 17.9688C20.3125 16.6743 19.2632 15.625 17.9688 15.625C16.6743 15.625 15.625 16.6743 15.625 17.9688C15.625 19.2632 16.6743 20.3125 17.9688 20.3125Z" fill="#0F3A7D"/>
<path d="M32.0312 20.3125C33.3257 20.3125 34.375 19.2632 34.375 17.9688C34.375 16.6743 33.3257 15.625 32.0312 15.625C30.7368 15.625 29.6875 16.6743 29.6875 17.9688C29.6875 19.2632 30.7368 20.3125 32.0312 20.3125Z" fill="#0F3A7D"/>
<path d="M17.9688 34.375C19.2632 34.375 20.3125 33.3257 20.3125 32.0312C20.3125 30.7368 19.2632 29.6875 17.9688 29.6875C16.6743 29.6875 15.625 30.7368 15.625 32.0312C15.625 33.3257 16.6743 34.375 17.9688 34.375Z" fill="#0F3A7D"/>
<path d="M25 27.3438C26.2944 27.3438 27.3438 26.2944 27.3438 25C27.3438 23.7056 26.2944 22.6562 25 22.6562C23.7056 22.6562 22.6562 23.7056 22.6562 25C22.6562 26.2944 23.7056 27.3438 25 27.3438Z" fill="#0F3A7D"/>
<path d="M32.0312 34.375C33.3257 34.375 34.375 33.3257 34.375 32.0312C34.375 30.7368 33.3257 29.6875 32.0312 29.6875C30.7368 29.6875 29.6875 30.7368 29.6875 32.0312C29.6875 33.3257 30.7368 34.375 32.0312 34.375Z" fill="#0F3A7D"/>
</svg>
