<svg width="50" height="50" viewBox="0 0 50 50" fill="none" xmlns="http://www.w3.org/2000/svg">
<path fill-rule="evenodd" clip-rule="evenodd" d="M27.5683 6.37085C27.0134 6.22377 26.4329 6.20082 25.8681 6.30363C25.3032 6.40644 24.768 6.63248 24.3005 6.96567C23.833 7.29886 23.4447 7.73101 23.1632 8.23135C22.8817 8.7317 22.7139 9.28794 22.6719 9.86049L22.671 9.8715C22.6169 10.5438 22.7412 11.2184 23.0316 11.8272C23.2626 12.3113 23.229 12.88 22.9428 13.3336C22.6566 13.7873 22.1577 14.0624 21.6214 14.0624H12.5003V22.4022C12.5003 22.9385 12.2252 23.4374 11.7717 23.7236C11.3182 24.0098 10.7495 24.0435 10.2654 23.8127C9.7472 23.5657 9.18089 23.4359 8.6068 23.4326C8.03272 23.4294 7.46497 23.5527 6.94396 23.7938C6.42295 24.0349 5.9615 24.3879 5.59244 24.8277C5.22338 25.2674 4.95579 25.7831 4.80871 26.3381C4.66163 26.893 4.63868 27.4735 4.74149 28.0384C4.8443 28.6032 5.07035 29.1384 5.40354 29.6059C5.73673 30.0734 6.16887 30.4618 6.66922 30.7433C7.16956 31.0248 7.7258 31.1925 8.29836 31.2346L8.30937 31.2354C8.98164 31.2896 9.6563 31.1652 10.265 30.8748C10.7491 30.6439 11.3179 30.6774 11.7715 30.9636C12.2251 31.2498 12.5003 31.7487 12.5003 32.2851V40.6249H40.6253V34.3351C40.3766 34.3633 40.126 34.3782 39.8746 34.3796C38.8412 34.3855 37.8193 34.1635 36.8815 33.7295C35.9436 33.2955 35.113 32.6601 34.4487 31.8685C33.7844 31.077 33.3027 30.1487 33.038 29.1498C32.7733 28.1509 32.732 27.106 32.917 26.0893C33.1021 25.0726 33.5089 24.1093 34.1087 23.2677C34.7084 22.4262 35.4863 21.7272 36.3869 21.2205C37.286 20.7147 38.2853 20.4129 39.3139 20.3365C39.7524 20.3016 40.1915 20.3084 40.6253 20.356V14.0624H31.5042C30.9679 14.0624 30.4691 13.7874 30.1828 13.3338C29.8966 12.8803 29.863 12.3117 30.0937 11.8276C30.3408 11.3093 30.4705 10.743 30.4738 10.1689C30.4771 9.59485 30.3537 9.0271 30.1126 8.50609C29.8715 7.98509 29.5185 7.52363 29.0787 7.15458C28.639 6.78552 28.1233 6.51793 27.5683 6.37085ZM25.3084 3.22914C26.3251 3.04409 27.3701 3.0854 28.3689 3.35014C29.3678 3.61488 30.2961 4.09655 31.0876 4.76085C31.8792 5.42516 32.5146 6.25578 32.9486 7.19359C33.3826 8.1314 33.6046 9.15335 33.5987 10.1867C33.5973 10.4381 33.5824 10.6887 33.5543 10.9374H40.6253C41.4541 10.9374 42.2489 11.2666 42.835 11.8527C43.421 12.4387 43.7503 13.2336 43.7503 14.0624V22.4022C43.7503 22.9386 43.4751 23.4375 43.0215 23.7237C42.5679 24.0099 41.9991 24.0434 41.515 23.8125C40.9063 23.5221 40.2316 23.3977 39.5594 23.4519L39.5484 23.4527C38.9758 23.4948 38.4196 23.6626 37.9192 23.9441C37.4189 24.2256 36.9867 24.6139 36.6535 25.0814C36.3203 25.5489 36.0943 26.0841 35.9915 26.6489C35.8887 27.2138 35.9116 27.7943 36.0587 28.3492C36.2058 28.9042 36.4734 29.4199 36.8424 29.8596C37.2115 30.2994 37.673 30.6524 38.194 30.8935C38.715 31.1346 39.2827 31.2579 39.8568 31.2547C40.4309 31.2514 40.9972 31.1216 41.5154 30.8746C41.9995 30.6438 42.5682 30.6775 43.0217 30.9637C43.4752 31.2499 43.7503 31.7488 43.7503 32.2851V40.6249C43.7503 41.4537 43.421 42.2486 42.835 42.8346C42.2489 43.4207 41.4541 43.7499 40.6253 43.7499H12.5003C11.6715 43.7499 10.8766 43.4207 10.2906 42.8346C9.70451 42.2486 9.37527 41.4537 9.37527 40.6249V34.3313C8.94154 34.3789 8.5026 34.3857 8.0642 34.3508C7.03543 34.2744 6.03603 33.9727 5.13692 33.4668C4.2363 32.9601 3.45843 32.2611 2.85869 31.4196C2.25895 30.578 1.85207 29.6147 1.66701 28.598C1.48195 27.5813 1.52326 26.5364 1.78801 25.5375C2.05275 24.5386 2.53441 23.6103 3.19872 22.8188C3.86303 22.0272 4.69364 21.3918 5.63145 20.9578C6.56926 20.5238 7.59121 20.3018 8.62457 20.3077C8.87598 20.3091 9.12656 20.324 9.37527 20.3522V14.0624C9.37527 13.2336 9.70451 12.4387 10.2906 11.8527C10.8766 11.2666 11.6715 10.9374 12.5003 10.9374H19.5751C19.5275 10.5036 19.5207 10.0646 19.5557 9.62607C19.632 8.59739 19.9338 7.59809 20.4396 6.69905C20.9463 5.79843 21.6453 5.02057 22.4869 4.42082C23.3284 3.82108 24.2918 3.4142 25.3084 3.22914Z" fill="#0F3A7D"/>
</svg>
