<svg width="50" height="50" viewBox="0 0 50 50" fill="none" xmlns="http://www.w3.org/2000/svg">
<path d="M40.625 4.6875H14.043C10.6191 4.6875 7.82617 7.46484 7.8125 10.8867V42.1445C7.8125 42.1582 7.8125 42.1738 7.8125 42.1875V43.75C7.8125 44.6133 8.51172 45.3125 9.375 45.3125H37.5C38.3633 45.3125 39.0625 44.6133 39.0625 43.75C39.0625 42.8867 38.3633 42.1875 37.5 42.1875H10.9375V42.1523C10.9453 40.4531 12.3281 39.0703 14.0234 39.0625H40.625C41.4883 39.0625 42.1875 38.3633 42.1875 37.5V6.25C42.1875 5.38672 41.4883 4.6875 40.625 4.6875ZM23.4375 7.8125H32.8125V21.875L29.0625 19.0625C28.5078 18.6465 27.7422 18.6465 27.1875 19.0625L23.4375 21.875V7.8125ZM39.0625 35.9375H14.0176C12.8965 35.9414 11.8457 36.2441 10.9375 36.7676V10.9043C10.9414 10.0742 11.2676 9.29688 11.8555 8.71289C12.4414 8.13281 13.2168 7.8125 14.0488 7.8125H20.3125V25C20.3125 25.5918 20.6465 26.1328 21.1758 26.3984C21.7051 26.6641 22.3379 26.6055 22.8125 26.252L28.125 22.2676L33.4375 26.252C33.7129 26.459 34.043 26.5645 34.375 26.5645C34.6133 26.5645 34.8516 26.5098 35.0742 26.4004C35.6035 26.1348 35.9375 25.5957 35.9375 25.002V7.8125H39.0625V35.9375Z" fill="#0F3A7D"/>
</svg>
