<svg width="15" height="15" viewBox="0 0 15 15" fill="none" xmlns="http://www.w3.org/2000/svg">
<path fill-rule="evenodd" clip-rule="evenodd" d="M10.5275 2.81252C10.6834 2.81151 10.8371 2.84965 10.9745 2.92347C11.1117 2.99716 11.2281 3.10404 11.3133 3.23432L13.8069 6.98055C13.9108 7.13384 13.9664 7.31479 13.9664 7.50002C13.9664 7.68524 13.9108 7.86618 13.8069 8.01946L11.3133 11.7657C11.2281 11.896 11.1117 12.0029 10.9745 12.0766C10.8371 12.1504 10.6834 12.1885 10.5275 12.1875H1.40625C1.23344 12.1875 1.07464 12.0924 0.993041 11.9401C0.911445 11.7878 0.920287 11.6029 1.01605 11.459L3.65148 7.50002L1.01605 3.54102C0.920287 3.39716 0.911445 3.21228 0.993041 3.05995C1.07464 2.90761 1.23344 2.81252 1.40625 2.81252H10.5275ZM10.9219 11.5078L10.5317 11.2481L13.0265 7.50002L10.5304 3.75003L10.5293 3.75004L2.2814 3.75002L4.43188 6.98052C4.5358 7.13381 4.59138 7.31477 4.59138 7.50002C4.59138 7.68526 4.5358 7.86622 4.43189 8.01951L2.2814 11.25H10.5336L10.5315 11.2504L10.5308 11.2507L10.5293 11.2519L10.5286 11.2527L10.9219 11.5078Z" fill="white"/>
</svg>
