<svg width="16" height="17" viewBox="0 0 16 17" fill="none" xmlns="http://www.w3.org/2000/svg">
<path fill-rule="evenodd" clip-rule="evenodd" d="M11.6952 5.82198C11.9271 6.07188 11.9181 6.46773 11.675 6.70613L7.21098 11.0837C6.97578 11.3143 6.60573 11.3142 6.37071 11.0833L4.14252 8.89454C3.89961 8.65593 3.89087 8.26007 4.12301 8.01037C4.35515 7.76067 4.74025 7.75169 4.98317 7.99031L6.79139 9.76655L10.8351 5.80117C11.0782 5.56276 11.4633 5.57208 11.6952 5.82198Z" fill="white"/>
<path fill-rule="evenodd" clip-rule="evenodd" d="M7.90893 1.25073C4.21295 1.25073 1.21676 4.33057 1.21676 8.12974C1.21676 11.9289 4.21295 15.0088 7.90893 15.0088C11.6049 15.0088 14.6011 11.9289 14.6011 8.12974C14.6011 4.33057 11.6049 1.25073 7.90893 1.25073ZM0 8.12974C0 3.63981 3.54095 0 7.90893 0C12.2769 0 15.8179 3.63981 15.8179 8.12974C15.8179 12.6197 12.2769 16.2595 7.90893 16.2595C3.54095 16.2595 0 12.6197 0 8.12974Z" fill="white"/>
</svg>
