<svg width="50" height="50" viewBox="0 0 50 50" fill="none" xmlns="http://www.w3.org/2000/svg">
<path d="M29.1667 18.7502H20.8333C20.2808 18.7502 19.7509 18.9697 19.3602 19.3604C18.9695 19.7511 18.75 20.281 18.75 20.8335V45.8335C18.75 46.386 18.9695 46.9159 19.3602 47.3066C19.7509 47.6973 20.2808 47.9168 20.8333 47.9168H29.1667C29.7192 47.9168 30.2491 47.6973 30.6398 47.3066C31.0305 46.9159 31.25 46.386 31.25 45.8335V20.8335C31.25 20.281 31.0305 19.7511 30.6398 19.3604C30.2491 18.9697 29.7192 18.7502 29.1667 18.7502ZM27.0833 43.7502H22.9167V22.9168H27.0833V43.7502ZM45.8333 2.0835H37.5C36.9475 2.0835 36.4176 2.30299 36.0269 2.69369C35.6362 3.08439 35.4167 3.6143 35.4167 4.16683V45.8335C35.4167 46.386 35.6362 46.9159 36.0269 47.3066C36.4176 47.6973 36.9475 47.9168 37.5 47.9168H45.8333C46.3859 47.9168 46.9158 47.6973 47.3065 47.3066C47.6972 46.9159 47.9167 46.386 47.9167 45.8335V4.16683C47.9167 3.6143 47.6972 3.08439 47.3065 2.69369C46.9158 2.30299 46.3859 2.0835 45.8333 2.0835ZM43.75 43.7502H39.5833V6.25016H43.75V43.7502ZM12.5 31.2502H4.16668C3.61414 31.2502 3.08424 31.4697 2.69354 31.8604C2.30284 32.2511 2.08334 32.781 2.08334 33.3335V45.8335C2.08334 46.386 2.30284 46.9159 2.69354 47.3066C3.08424 47.6973 3.61414 47.9168 4.16668 47.9168H12.5C13.0525 47.9168 13.5824 47.6973 13.9732 47.3066C14.3639 46.9159 14.5833 46.386 14.5833 45.8335V33.3335C14.5833 32.781 14.3639 32.2511 13.9732 31.8604C13.5824 31.4697 13.0525 31.2502 12.5 31.2502ZM10.4167 43.7502H6.25001V35.4168H10.4167V43.7502Z" fill="black"/>
</svg>
