<svg width="50" height="50" viewBox="0 0 50 50" fill="none" xmlns="http://www.w3.org/2000/svg">
<path d="M29.9167 29.6457C28.524 30.7685 26.7889 31.3808 25 31.3808C23.2111 31.3808 21.476 30.7685 20.0833 29.6457C19.6579 29.292 19.1094 29.1219 18.5585 29.1727C18.0076 29.2235 17.4995 29.4911 17.1458 29.9165C16.7922 30.342 16.6221 30.8905 16.6729 31.4413C16.7237 31.9922 16.9912 32.5004 17.4167 32.854C19.5445 34.6303 22.2283 35.6032 25 35.6032C27.7717 35.6032 30.4555 34.6303 32.5833 32.854C33.0088 32.5004 33.2763 31.9922 33.3271 31.4413C33.3779 30.8905 33.2078 30.342 32.8542 29.9165C32.6791 29.7058 32.4642 29.5317 32.2218 29.4041C31.9794 29.2765 31.7143 29.1979 31.4415 29.1727C30.8906 29.1219 30.3421 29.292 29.9167 29.6457ZM19.1875 21.9582C19.5778 22.3462 20.1059 22.564 20.6562 22.564C21.2066 22.564 21.7347 22.3462 22.125 21.9582C22.513 21.5678 22.7308 21.0398 22.7308 20.4894C22.7308 19.939 22.513 19.411 22.125 19.0207C20.9328 17.8894 19.3519 17.2588 17.7083 17.2588C16.0648 17.2588 14.4839 17.8894 13.2917 19.0207C13.0736 19.2074 12.8965 19.4373 12.7714 19.6957C12.6464 19.9542 12.5761 20.2357 12.565 20.5226C12.5539 20.8096 12.6023 21.0957 12.707 21.363C12.8117 21.6304 12.9706 21.8732 13.1736 22.0762C13.3767 22.2792 13.6195 22.4381 13.8868 22.5428C14.1542 22.6476 14.4403 22.6959 14.7272 22.6848C15.0141 22.6738 15.2956 22.6035 15.5541 22.4784C15.8126 22.3534 16.0424 22.1763 16.2292 21.9582C16.4228 21.7629 16.6533 21.6079 16.9071 21.5021C17.161 21.3964 17.4333 21.3419 17.7083 21.3419C17.9834 21.3419 18.2557 21.3964 18.5095 21.5021C18.7634 21.6079 18.9938 21.7629 19.1875 21.9582ZM36.7083 19.0207C35.5161 17.8894 33.9352 17.2588 32.2917 17.2588C30.6481 17.2588 29.0672 17.8894 27.875 19.0207C27.5337 19.4192 27.3554 19.9319 27.3756 20.4562C27.3959 20.9805 27.6132 21.4779 27.9842 21.8489C28.3553 22.22 28.8526 22.4373 29.377 22.4576C29.9013 22.4778 30.414 22.2995 30.8125 21.9582C31.0062 21.7629 31.2366 21.6079 31.4905 21.5021C31.7443 21.3964 32.0166 21.3419 32.2917 21.3419C32.5667 21.3419 32.839 21.3964 33.0929 21.5021C33.3467 21.6079 33.5772 21.7629 33.7708 21.9582C34.1612 22.3462 34.6892 22.564 35.2396 22.564C35.79 22.564 36.318 22.3462 36.7083 21.9582C37.0964 21.5678 37.3142 21.0398 37.3142 20.4894C37.3142 19.939 37.0964 19.411 36.7083 19.0207ZM25 4.1665C20.8796 4.1665 16.8516 5.38836 13.4256 7.67755C9.9996 9.96675 7.32933 13.2205 5.75251 17.0273C4.17568 20.8341 3.76311 25.0229 4.56697 29.0642C5.37083 33.1055 7.35501 36.8176 10.2686 39.7312C13.1822 42.6448 16.8943 44.629 20.9356 45.4329C24.9769 46.2367 29.1658 45.8242 32.9726 44.2473C36.7794 42.6705 40.0331 40.0002 42.3223 36.5742C44.6115 33.1482 45.8333 29.1203 45.8333 24.9998C45.8333 22.264 45.2945 19.5549 44.2475 17.0273C43.2005 14.4996 41.6659 12.203 39.7314 10.2684C37.7968 8.33389 35.5002 6.79932 32.9726 5.75235C30.445 4.70537 27.7359 4.1665 25 4.1665ZM25 41.6665C21.7036 41.6665 18.4813 40.689 15.7405 38.8577C12.9997 37.0263 10.8635 34.4233 9.60201 31.3779C8.34055 28.3325 8.01049 24.9813 8.65358 21.7483C9.29667 18.5153 10.884 15.5456 13.2149 13.2147C15.5458 10.8838 18.5155 9.2965 21.7485 8.65342C24.9815 8.01033 28.3326 8.34038 31.3781 9.60185C34.4235 10.8633 37.0265 12.9995 38.8578 15.7403C40.6892 18.4812 41.6667 21.7035 41.6667 24.9998C41.6667 29.4201 39.9107 33.6593 36.7851 36.785C33.6595 39.9106 29.4203 41.6665 25 41.6665Z" fill="#FFBF42"/>
</svg>
