<svg width="20" height="20" viewBox="0 0 20 20" fill="none" xmlns="http://www.w3.org/2000/svg">
<path fill-rule="evenodd" clip-rule="evenodd" d="M10 3.125C6.20304 3.125 3.125 6.20304 3.125 10C3.125 13.797 6.20304 16.875 10 16.875C13.797 16.875 16.875 13.797 16.875 10C16.875 6.20304 13.797 3.125 10 3.125ZM1.875 10C1.875 5.51269 5.51269 1.875 10 1.875C14.4873 1.875 18.125 5.51269 18.125 10C18.125 14.4873 14.4873 18.125 10 18.125C5.51269 18.125 1.875 14.4873 1.875 10Z" fill="#FF0000"/>
<path d="M7.1875 9.375C7.70527 9.375 8.125 8.95527 8.125 8.4375C8.125 7.91973 7.70527 7.5 7.1875 7.5C6.66973 7.5 6.25 7.91973 6.25 8.4375C6.25 8.95527 6.66973 9.375 7.1875 9.375Z" fill="#FF0000"/>
<path d="M12.8125 9.375C13.3303 9.375 13.75 8.95527 13.75 8.4375C13.75 7.91973 13.3303 7.5 12.8125 7.5C12.2947 7.5 11.875 7.91973 11.875 8.4375C11.875 8.95527 12.2947 9.375 12.8125 9.375Z" fill="#FF0000"/>
<path d="M7.1875 9.375C7.70527 9.375 8.125 8.95527 8.125 8.4375C8.125 7.91973 7.70527 7.5 7.1875 7.5C6.66973 7.5 6.25 7.91973 6.25 8.4375C6.25 8.95527 6.66973 9.375 7.1875 9.375Z" fill="#FF0000"/>
<path d="M12.8125 9.375C13.3303 9.375 13.75 8.95527 13.75 8.4375C13.75 7.91973 13.3303 7.5 12.8125 7.5C12.2947 7.5 11.875 7.91973 11.875 8.4375C11.875 8.95527 12.2947 9.375 12.8125 9.375Z" fill="#FF0000"/>
<path fill-rule="evenodd" clip-rule="evenodd" d="M7.81297 11.8383C8.4782 11.4553 9.23236 11.2537 9.99998 11.2537C10.7676 11.2537 11.5218 11.4553 12.187 11.8383C12.8522 12.2214 13.4052 12.7724 13.7905 13.4363C13.9638 13.7348 13.8623 14.1173 13.5637 14.2906C13.2652 14.4639 12.8827 14.3623 12.7094 14.0638C12.434 13.5892 12.0387 13.1954 11.5632 12.9216C11.0877 12.6478 10.5487 12.5037 9.99998 12.5037C9.45129 12.5037 8.91222 12.6478 8.43672 12.9216C7.96122 13.1954 7.56597 13.5892 7.29052 14.0638C7.11724 14.3623 6.73476 14.4639 6.43623 14.2906C6.1377 14.1173 6.03616 13.7348 6.20944 13.4363C6.59479 12.7724 7.14775 12.2214 7.81297 11.8383Z" fill="#FF0000"/>
</svg>
