<svg width="10" height="11" viewBox="0 0 10 11" fill="none" xmlns="http://www.w3.org/2000/svg">
<path fill-rule="evenodd" clip-rule="evenodd" d="M7.39367 3.72172C7.5403 3.88054 7.53457 4.13213 7.38087 4.28365L4.55876 7.06586C4.41006 7.21246 4.17612 7.21235 4.02754 7.06563L2.61889 5.67453C2.46532 5.52287 2.4598 5.27128 2.60655 5.11258C2.75331 4.95388 2.99677 4.94817 3.15034 5.09983L4.2935 6.22874L6.8499 3.70849C7.00359 3.55697 7.24705 3.56289 7.39367 3.72172Z" fill="black"/>
<path fill-rule="evenodd" clip-rule="evenodd" d="M5 0.816402C2.66341 0.816402 0.769231 2.77383 0.769231 5.18845C0.769231 7.60306 2.66341 9.56049 5 9.56049C7.33659 9.56049 9.23077 7.60306 9.23077 5.18845C9.23077 2.77383 7.33659 0.816402 5 0.816402ZM0 5.18845C0 2.33481 2.23858 0.0214844 5 0.0214844C7.76142 0.0214844 10 2.33481 10 5.18845C10 8.04208 7.76142 10.3554 5 10.3554C2.23858 10.3554 0 8.04208 0 5.18845Z" fill="black"/>
</svg>
