<svg width="20" height="20" viewBox="0 0 20 20" fill="none" xmlns="http://www.w3.org/2000/svg">
<path fill-rule="evenodd" clip-rule="evenodd" d="M1.875 6.25C1.875 5.55964 2.43464 5 3.125 5H16.875C17.5654 5 18.125 5.55964 18.125 6.25V16.25C18.125 16.9404 17.5654 17.5 16.875 17.5H3.125C2.43464 17.5 1.875 16.9404 1.875 16.25V6.25ZM16.875 6.25H3.125V16.25H16.875V6.25Z" fill="#FFBF42"/>
<path fill-rule="evenodd" clip-rule="evenodd" d="M10 3.125C9.33696 3.125 8.70107 3.38839 8.23223 3.85723C7.76339 4.32607 7.5 4.96196 7.5 5.625C7.5 5.97018 7.22018 6.25 6.875 6.25C6.52982 6.25 6.25 5.97018 6.25 5.625C6.25 4.63044 6.64509 3.67661 7.34835 2.97335C8.05161 2.27009 9.00544 1.875 10 1.875C10.9946 1.875 11.9484 2.27009 12.6517 2.97335C13.3549 3.67661 13.75 4.63044 13.75 5.625C13.75 5.97018 13.4702 6.25 13.125 6.25C12.7798 6.25 12.5 5.97018 12.5 5.625C12.5 4.96196 12.2366 4.32607 11.7678 3.85723C11.2989 3.38839 10.663 3.125 10 3.125Z" fill="#FFBF42"/>
</svg>
