<svg width="20" height="20" viewBox="0 0 20 20" fill="none" xmlns="http://www.w3.org/2000/svg">
<path fill-rule="evenodd" clip-rule="evenodd" d="M2.5 3.75005C2.5 3.05969 3.05964 2.50005 3.75 2.50005H6.25C6.94036 2.50005 7.5 3.05969 7.5 3.75005V16.25C7.5 16.9404 6.94036 17.5 6.25 17.5H3.75C3.05964 17.5 2.5 16.9404 2.5 16.25V3.75005ZM6.25 3.75005H3.75V16.25H6.25V3.75005Z" fill="#FFBF42"/>
<path fill-rule="evenodd" clip-rule="evenodd" d="M2.5 6.25005C2.5 5.90487 2.77982 5.62505 3.125 5.62505H6.875C7.22018 5.62505 7.5 5.90487 7.5 6.25005C7.5 6.59522 7.22018 6.87505 6.875 6.87505H3.125C2.77982 6.87505 2.5 6.59522 2.5 6.25005Z" fill="#FFBF42"/>
<path fill-rule="evenodd" clip-rule="evenodd" d="M6.25 3.75005C6.25 3.05969 6.80964 2.50005 7.5 2.50005H10C10.6904 2.50005 11.25 3.05969 11.25 3.75005V16.25C11.25 16.9404 10.6904 17.5 10 17.5H7.5C6.80964 17.5 6.25 16.9404 6.25 16.25V3.75005ZM10 3.75005H7.5V16.25H10V3.75005Z" fill="#FFBF42"/>
<path fill-rule="evenodd" clip-rule="evenodd" d="M6.25 13.75C6.25 13.4049 6.52982 13.125 6.875 13.125H10.625C10.9702 13.125 11.25 13.4049 11.25 13.75C11.25 14.0952 10.9702 14.375 10.625 14.375H6.875C6.52982 14.375 6.25 14.0952 6.25 13.75Z" fill="#FFBF42"/>
<path fill-rule="evenodd" clip-rule="evenodd" d="M10.2388 4.50173C10.0593 3.83209 10.4566 3.14372 11.1263 2.96423L13.5513 2.31423C14.2209 2.13474 14.9093 2.53209 15.0888 3.20173L18.3388 15.3267C18.5183 15.9964 18.1209 16.6847 17.4513 16.8642L15.0263 17.5142C14.3566 17.6937 13.6683 17.2964 13.4888 16.6267L10.2388 4.50173ZM13.8763 3.52673L11.4513 4.17673L14.7013 16.3017L17.1263 15.6517L13.8763 3.52673Z" fill="#FFBF42"/>
<path fill-rule="evenodd" clip-rule="evenodd" d="M17.6034 12.8608C17.6932 13.1941 17.4958 13.5371 17.1625 13.6269L13.5375 14.6035C13.2042 14.6933 12.8612 14.4959 12.7715 14.1626C12.6817 13.8293 12.8791 13.4863 13.2124 13.3965L16.8374 12.4199C17.1707 12.3302 17.5136 12.5276 17.6034 12.8608Z" fill="#FFBF42"/>
<path fill-rule="evenodd" clip-rule="evenodd" d="M15.6663 5.61994C15.7555 5.95341 15.5574 6.29599 15.2239 6.38511L11.5989 7.35386C11.2654 7.44298 10.9228 7.24489 10.8337 6.91141C10.7446 6.57794 10.9427 6.23536 11.2762 6.14624L14.9012 5.17749C15.2346 5.08837 15.5772 5.28646 15.6663 5.61994Z" fill="#FFBF42"/>
</svg>
