<svg width="20" height="20" viewBox="0 0 20 20" fill="none" xmlns="http://www.w3.org/2000/svg">
<path fill-rule="evenodd" clip-rule="evenodd" d="M2.5 4.375C2.84518 4.375 3.125 4.65482 3.125 5V11.25C3.125 11.5952 2.84518 11.875 2.5 11.875C2.15482 11.875 1.875 11.5952 1.875 11.25V5C1.875 4.65482 2.15482 4.375 2.5 4.375Z" fill="#FFBF42"/>
<path fill-rule="evenodd" clip-rule="evenodd" d="M10 14.3762C8.95896 14.3762 7.93436 14.6359 7.01901 15.1319C6.10367 15.6278 5.32651 16.3442 4.75794 17.2163C4.56942 17.5055 4.18219 17.587 3.89304 17.3985C3.60389 17.21 3.52231 16.8228 3.71083 16.5336C4.39298 15.4873 5.32538 14.6278 6.42356 14.0328C7.52174 13.4378 8.75101 13.1262 10 13.1262C11.249 13.1262 12.4783 13.4378 13.5765 14.0328C14.6746 14.6278 15.607 15.4873 16.2892 16.5336C16.4777 16.8228 16.3961 17.21 16.107 17.3985C15.8178 17.587 15.4306 17.5055 15.2421 17.2163C14.6735 16.3442 13.8964 15.6278 12.981 15.1319C12.0657 14.6359 11.0411 14.3762 10 14.3762Z" fill="#FFBF42"/>
<path fill-rule="evenodd" clip-rule="evenodd" d="M9.80236 1.90707C9.93065 1.86431 10.0694 1.86431 10.1976 1.90707L17.6976 4.40707C17.9529 4.49214 18.125 4.73098 18.125 5C18.125 5.26902 17.9529 5.50786 17.6976 5.59293L10.1976 8.09293C10.0694 8.13569 9.93065 8.13569 9.80236 8.09293L2.30236 5.59293C2.04714 5.50786 1.875 5.26902 1.875 5C1.875 4.73098 2.04714 4.49214 2.30236 4.40707L9.80236 1.90707ZM4.47642 5L10 6.84119L15.5236 5L10 3.15881L4.47642 5Z" fill="#FFBF42"/>
<path fill-rule="evenodd" clip-rule="evenodd" d="M7.19553 5.96088C7.4501 6.19399 7.46749 6.58934 7.23438 6.84391C6.74296 7.38055 6.41829 8.04856 6.29994 8.76652C6.18159 9.48447 6.27467 10.2214 6.56783 10.8873C6.861 11.5533 7.34159 12.1196 7.95101 12.5172C8.56043 12.9148 9.27237 13.1262 10 13.1262C10.7277 13.1262 11.4396 12.9148 12.049 12.5172C12.6584 12.1196 13.139 11.5533 13.4322 10.8873C13.7253 10.2214 13.8184 9.48447 13.7001 8.76652C13.5817 8.04856 13.257 7.38055 12.7656 6.84391C12.5325 6.58934 12.5499 6.19399 12.8045 5.96088C13.059 5.72777 13.4544 5.74516 13.6875 5.99973C14.3427 6.71524 14.7756 7.60593 14.9334 8.5632C15.0912 9.52048 14.9671 10.503 14.5762 11.3909C14.1853 12.2789 13.5446 13.034 12.732 13.5641C11.9194 14.0942 10.9702 14.3762 10 14.3762C9.02982 14.3762 8.08057 14.0942 7.26801 13.5641C6.45545 13.034 5.81467 12.2789 5.42378 11.3909C5.03289 10.503 4.90878 9.52048 5.06659 8.5632C5.22439 7.60593 5.65729 6.71524 6.3125 5.99973C6.54562 5.74516 6.94096 5.72777 7.19553 5.96088Z" fill="#FFBF42"/>
</svg>
