<svg width="50" height="50" viewBox="0 0 50 50" fill="none" xmlns="http://www.w3.org/2000/svg">
<path d="M37.5 4.1665H16.6667C14.4565 4.1665 12.3369 5.04448 10.7741 6.60728C9.21132 8.17008 8.33334 10.2897 8.33334 12.4998V37.4998C8.33334 39.71 9.21132 41.8296 10.7741 43.3924C12.3369 44.9552 14.4565 45.8332 16.6667 45.8332H37.5C38.6051 45.8332 39.6649 45.3942 40.4463 44.6128C41.2277 43.8314 41.6667 42.7716 41.6667 41.6665V8.33317C41.6667 7.2281 41.2277 6.16829 40.4463 5.38689C39.6649 4.60549 38.6051 4.1665 37.5 4.1665ZM12.5 12.4998C12.5 11.3948 12.939 10.335 13.7204 9.55356C14.5018 8.77216 15.5616 8.33317 16.6667 8.33317H37.5V29.1665H16.6667C15.198 29.1727 13.7583 29.5758 12.5 30.3332V12.4998ZM16.6667 41.6665C15.5616 41.6665 14.5018 41.2275 13.7204 40.4461C12.939 39.6647 12.5 38.6049 12.5 37.4998C12.5 36.3948 12.939 35.335 13.7204 34.5536C14.5018 33.7722 15.5616 33.3332 16.6667 33.3332H37.5V41.6665H16.6667ZM20.8333 16.6665H29.1667C29.7192 16.6665 30.2491 16.447 30.6398 16.0563C31.0305 15.6656 31.25 15.1357 31.25 14.5832C31.25 14.0306 31.0305 13.5007 30.6398 13.11C30.2491 12.7193 29.7192 12.4998 29.1667 12.4998H20.8333C20.2808 12.4998 19.7509 12.7193 19.3602 13.11C18.9695 13.5007 18.75 14.0306 18.75 14.5832C18.75 15.1357 18.9695 15.6656 19.3602 16.0563C19.7509 16.447 20.2808 16.6665 20.8333 16.6665Z" fill="#1988D3"/>
</svg>
