<svg width="50" height="50" viewBox="0 0 50 50" fill="none" xmlns="http://www.w3.org/2000/svg">
<path d="M14.5833 31.2498H20.8333C21.3859 31.2498 21.9158 31.0303 22.3065 30.6396C22.6972 30.2489 22.9167 29.719 22.9167 29.1665C22.9167 28.614 22.6972 28.0841 22.3065 27.6934C21.9158 27.3027 21.3859 27.0832 20.8333 27.0832H14.5833C14.0308 27.0832 13.5009 27.3027 13.1102 27.6934C12.7195 28.0841 12.5 28.614 12.5 29.1665C12.5 29.719 12.7195 30.2489 13.1102 30.6396C13.5009 31.0303 14.0308 31.2498 14.5833 31.2498ZM39.5833 10.4165H10.4167C8.75905 10.4165 7.16934 11.075 5.99724 12.2471C4.82514 13.4192 4.16666 15.0089 4.16666 16.6665V35.4165C4.16666 37.0741 4.82514 38.6638 5.99724 39.8359C7.16934 41.008 8.75905 41.6665 10.4167 41.6665H39.5833C41.2409 41.6665 42.8306 41.008 44.0027 39.8359C45.1748 38.6638 45.8333 37.0741 45.8333 35.4165V16.6665C45.8333 15.0089 45.1748 13.4192 44.0027 12.2471C42.8306 11.075 41.2409 10.4165 39.5833 10.4165ZM41.6667 35.4165C41.6667 35.969 41.4472 36.4989 41.0565 36.8896C40.6658 37.2803 40.1359 37.4998 39.5833 37.4998H10.4167C9.86412 37.4998 9.33422 37.2803 8.94352 36.8896C8.55282 36.4989 8.33332 35.969 8.33332 35.4165V22.9165H41.6667V35.4165ZM41.6667 18.7498H8.33332V16.6665C8.33332 16.114 8.55282 15.5841 8.94352 15.1934C9.33422 14.8027 9.86412 14.5832 10.4167 14.5832H39.5833C40.1359 14.5832 40.6658 14.8027 41.0565 15.1934C41.4472 15.5841 41.6667 16.114 41.6667 16.6665V18.7498Z" fill="#FF0000"/>
</svg>
