<svg width="50" height="50" viewBox="0 0 50 50" fill="none" xmlns="http://www.w3.org/2000/svg">
<path d="M22.9167 18.7502H31.25C31.8025 18.7502 32.3324 18.5307 32.7231 18.14C33.1138 17.7493 33.3333 17.2194 33.3333 16.6668C33.3333 16.1143 33.1138 15.5844 32.7231 15.1937C32.3324 14.803 31.8025 14.5835 31.25 14.5835H27.0833V12.5002C27.0833 11.9476 26.8638 11.4177 26.4731 11.027C26.0824 10.6363 25.5525 10.4168 25 10.4168C24.4475 10.4168 23.9176 10.6363 23.5268 11.027C23.1361 11.4177 22.9167 11.9476 22.9167 12.5002V14.5835C21.2591 14.5835 19.6693 15.242 18.4972 16.4141C17.3251 17.5862 16.6667 19.1759 16.6667 20.8335C16.6667 22.4911 17.3251 24.0808 18.4972 25.2529C19.6693 26.425 21.2591 27.0835 22.9167 27.0835H27.0833C27.6359 27.0835 28.1658 27.303 28.5565 27.6937C28.9472 28.0844 29.1667 28.6143 29.1667 29.1668C29.1667 29.7194 28.9472 30.2493 28.5565 30.64C28.1658 31.0307 27.6359 31.2502 27.0833 31.2502H18.75C18.1975 31.2502 17.6676 31.4697 17.2769 31.8604C16.8861 32.2511 16.6667 32.781 16.6667 33.3335C16.6667 33.886 16.8861 34.4159 17.2769 34.8066C17.6676 35.1973 18.1975 35.4168 18.75 35.4168H22.9167V37.5002C22.9167 38.0527 23.1361 38.5826 23.5268 38.9733C23.9176 39.364 24.4475 39.5835 25 39.5835C25.5525 39.5835 26.0824 39.364 26.4731 38.9733C26.8638 38.5826 27.0833 38.0527 27.0833 37.5002V35.4168C28.7409 35.4168 30.3306 34.7584 31.5027 33.5863C32.6748 32.4141 33.3333 30.8244 33.3333 29.1668C33.3333 27.5092 32.6748 25.9195 31.5027 24.7474C30.3306 23.5753 28.7409 22.9168 27.0833 22.9168H22.9167C22.3641 22.9168 21.8342 22.6973 21.4435 22.3066C21.0528 21.9159 20.8333 21.386 20.8333 20.8335C20.8333 20.281 21.0528 19.7511 21.4435 19.3604C21.8342 18.9697 22.3641 18.7502 22.9167 18.7502ZM25 2.0835C20.4675 2.0835 16.0368 3.42753 12.2682 5.94565C8.49955 8.46377 5.56226 12.0429 3.82775 16.2303C2.09324 20.4178 1.63942 25.0256 2.52366 29.471C3.40791 33.9164 5.59051 37.9997 8.79546 41.2047C12.0004 44.4097 16.0838 46.5923 20.5292 47.4765C24.9746 48.3607 29.5823 47.9069 33.7698 46.1724C37.9573 44.4379 41.5364 41.5006 44.0545 37.732C46.5726 33.9634 47.9167 29.5327 47.9167 25.0002C47.9167 18.9223 45.5022 13.0933 41.2045 8.79563C36.9068 4.49792 31.0779 2.0835 25 2.0835ZM25 43.7502C21.2916 43.7502 17.6665 42.6505 14.583 40.5902C11.4996 38.5299 9.09639 35.6016 7.67725 32.1755C6.25811 28.7494 5.88679 24.9794 6.61027 21.3422C7.33374 17.7051 9.1195 14.3641 11.7417 11.7419C14.364 9.11968 17.7049 7.33391 21.342 6.61044C24.9792 5.88697 28.7492 6.25828 32.1753 7.67742C35.6014 9.09656 38.5298 11.4998 40.59 14.5832C42.6503 17.6666 43.75 21.2918 43.75 25.0002C43.75 29.973 41.7745 34.7421 38.2582 38.2584C34.7419 41.7747 29.9728 43.7502 25 43.7502Z" fill="#FF0000"/>
</svg>
