<svg width="50" height="50" viewBox="0 0 50 50" fill="none" xmlns="http://www.w3.org/2000/svg">
<path d="M14.5833 33.3332C15.4121 33.3332 16.207 33.0039 16.793 32.4179C17.3791 31.8318 17.7083 31.037 17.7083 30.2082C17.7185 30.1043 17.7185 29.9996 17.7083 29.8957L23.5208 24.0832H24H24.4792L27.8333 27.4373C27.8333 27.4373 27.8333 27.5415 27.8333 27.604C27.8333 28.4328 28.1626 29.2277 28.7486 29.8137C29.3347 30.3998 30.1295 30.729 30.9583 30.729C31.7871 30.729 32.582 30.3998 33.168 29.8137C33.7541 29.2277 34.0833 28.4328 34.0833 27.604V27.4373L41.6667 19.7915C42.2847 19.7915 42.8889 19.6082 43.4028 19.2648C43.9167 18.9215 44.3173 18.4334 44.5538 17.8624C44.7903 17.2914 44.8522 16.663 44.7316 16.0568C44.611 15.4507 44.3134 14.8938 43.8764 14.4568C43.4393 14.0198 42.8825 13.7221 42.2763 13.6015C41.6701 13.481 41.0418 13.5429 40.4708 13.7794C39.8998 14.0159 39.4117 14.4164 39.0683 14.9303C38.7249 15.4443 38.5417 16.0484 38.5417 16.6665C38.5315 16.7704 38.5315 16.8751 38.5417 16.979L31.0208 24.4998H30.6875L27.0833 20.8332C27.0833 20.0044 26.7541 19.2095 26.168 18.6235C25.582 18.0374 24.7871 17.7082 23.9583 17.7082C23.1295 17.7082 22.3347 18.0374 21.7486 18.6235C21.1626 19.2095 20.8333 20.0044 20.8333 20.8332L14.5833 27.0832C13.7545 27.0832 12.9597 27.4124 12.3736 27.9985C11.7876 28.5845 11.4583 29.3794 11.4583 30.2082C11.4583 31.037 11.7876 31.8318 12.3736 32.4179C12.9597 33.0039 13.7545 33.3332 14.5833 33.3332ZM42.7083 41.6665H7.29167V6.24984C7.29167 5.6973 7.07217 5.1674 6.68147 4.7767C6.29077 4.386 5.76087 4.1665 5.20833 4.1665C4.6558 4.1665 4.12589 4.386 3.73519 4.7767C3.34449 5.1674 3.125 5.6973 3.125 6.24984V43.7498C3.125 44.3024 3.34449 44.8323 3.73519 45.223C4.12589 45.6137 4.6558 45.8332 5.20833 45.8332H42.7083C43.2609 45.8332 43.7908 45.6137 44.1815 45.223C44.5722 44.8323 44.7917 44.3024 44.7917 43.7498C44.7917 43.1973 44.5722 42.6674 44.1815 42.2767C43.7908 41.886 43.2609 41.6665 42.7083 41.6665Z" fill="black"/>
</svg>
