<svg width="15" height="15" viewBox="0 0 15 15" fill="none" xmlns="http://www.w3.org/2000/svg">
<path fill-rule="evenodd" clip-rule="evenodd" d="M1.40625 4.6875C1.40625 4.16973 1.82598 3.75 2.34375 3.75H12.6562C13.174 3.75 13.5938 4.16973 13.5938 4.6875V12.1875C13.5938 12.7053 13.174 13.125 12.6562 13.125H2.34375C1.82598 13.125 1.40625 12.7053 1.40625 12.1875V4.6875ZM12.6562 4.6875H2.34375V12.1875H12.6562V4.6875Z" fill="black"/>
<path fill-rule="evenodd" clip-rule="evenodd" d="M7.5 2.34375C7.00272 2.34375 6.52581 2.54129 6.17417 2.89292C5.82254 3.24456 5.625 3.72147 5.625 4.21875C5.625 4.47763 5.41513 4.6875 5.15625 4.6875C4.89737 4.6875 4.6875 4.47763 4.6875 4.21875C4.6875 3.47283 4.98382 2.75746 5.51126 2.23001C6.03871 1.70257 6.75408 1.40625 7.5 1.40625C8.24592 1.40625 8.96129 1.70257 9.48874 2.23001C10.0162 2.75746 10.3125 3.47283 10.3125 4.21875C10.3125 4.47763 10.1026 4.6875 9.84375 4.6875C9.58487 4.6875 9.375 4.47763 9.375 4.21875C9.375 3.72147 9.17746 3.24456 8.82583 2.89292C8.47419 2.54129 7.99728 2.34375 7.5 2.34375Z" fill="black"/>
</svg>
