<svg width="40" height="40" viewBox="0 0 40 40" fill="none" xmlns="http://www.w3.org/2000/svg">
<circle cx="20" cy="20" r="20" fill="black"/>
<path fill-rule="evenodd" clip-rule="evenodd" d="M20.4025 8.0823C20.4025 7.55575 20.8294 7.12891 21.3559 7.12891H26.1229C26.6494 7.12891 27.0763 7.55575 27.0763 8.0823C27.0763 9.59942 27.6789 11.0544 28.7517 12.1272C29.8245 13.2 31.2795 13.8026 32.7966 13.8026C33.3231 13.8026 33.75 14.2295 33.75 14.756V19.523C33.75 20.0493 33.3236 20.476 32.7973 20.4764C30.7971 20.4778 28.8356 19.9948 27.0763 19.08V23.3361C27.077 25.0591 26.5863 26.747 25.6616 28.2009C24.7369 29.6549 23.4166 30.815 21.8556 31.5449C20.2947 32.2748 18.5579 32.5443 16.8492 32.3218C15.1405 32.0992 13.5307 31.3938 12.2088 30.2884C10.887 29.183 9.90784 27.7234 9.38644 26.081C8.86503 24.4386 8.82296 22.6816 9.26517 21.0161C9.70738 19.3507 10.6155 17.8459 11.883 16.6785C13.1504 15.5111 14.7246 14.7295 16.4207 14.4254C16.6986 14.3756 16.9842 14.4514 17.2008 14.6326C17.4173 14.8137 17.5424 15.0815 17.5424 15.3638V20.3214C17.5424 20.6897 17.3303 21.025 16.9976 21.1828C16.6122 21.3656 16.2829 21.6485 16.0441 22.0019C15.8053 22.3554 15.6658 22.7664 15.6399 23.1921C15.6141 23.6179 15.7031 24.0428 15.8974 24.4224C16.0918 24.8021 16.3845 25.1227 16.745 25.3507C17.1055 25.5787 17.5205 25.7058 17.9469 25.7187C18.3732 25.7316 18.7952 25.6299 19.1688 25.4241C19.5424 25.2184 19.854 24.9161 20.071 24.5489C20.288 24.1817 20.4025 23.763 20.4025 23.3365V8.0823ZM22.3093 9.03569V23.3365C22.3093 24.1043 22.1032 24.858 21.7126 25.519C21.322 26.18 20.7612 26.724 20.0886 27.0944C19.4161 27.4648 18.6565 27.6479 17.8891 27.6246C17.1217 27.6013 16.3746 27.3726 15.7257 26.9622C15.0768 26.5518 14.55 25.9748 14.2001 25.2913C13.8503 24.6079 13.6902 23.8431 13.7367 23.0768C13.7831 22.3104 14.0344 21.5706 14.4642 20.9344C14.7766 20.4721 15.1749 20.0768 15.6356 19.7691V16.599C14.7273 16.9201 13.8893 17.4229 13.1748 18.081C12.1742 19.0027 11.4572 20.1906 11.1081 21.5055C10.759 22.8203 10.7922 24.2074 11.2038 25.5041C11.6155 26.8007 12.3884 27.953 13.432 28.8257C14.4756 29.6984 15.7465 30.2553 17.0955 30.431C18.4445 30.6067 19.8156 30.3939 21.0479 29.8177C22.2803 29.2414 23.3226 28.3256 24.0527 27.1777C24.7827 26.0297 25.1701 24.6974 25.1695 23.337V17.3778C25.1695 17.0203 25.3695 16.6928 25.6877 16.5296C26.0058 16.3664 26.3885 16.3949 26.6789 16.6034C28.2025 17.6973 29.9867 18.3587 31.8432 18.5269V15.6496C30.1719 15.4391 28.6072 14.6793 27.4034 13.4755C26.1996 12.2717 25.4398 10.707 25.2293 9.03569H22.3093Z" fill="white"/>
</svg>
