<svg width="40" height="40" viewBox="0 0 40 40" fill="none" xmlns="http://www.w3.org/2000/svg">
<circle cx="20" cy="20" r="20" fill="#4FB4F8"/>
<path d="M20 7.60596C13.1642 7.60596 7.60593 13.1642 7.60593 20C7.60593 26.8358 13.1642 32.3941 20 32.3941C26.8358 32.3941 32.3941 26.8358 32.3941 20C32.3941 13.1642 26.8358 7.60596 20 7.60596ZM20.9534 30.4396V22.8602H23.8136C24.3379 22.8602 24.7669 22.4312 24.7669 21.9068C24.7669 21.3824 24.3379 20.9534 23.8136 20.9534H20.9534V18.0742C20.9534 17.5689 21.1536 17.0922 21.5159 16.7394C21.8686 16.3867 22.3453 16.1865 22.8506 16.1865H24.7669C25.2913 16.1865 25.7203 15.7574 25.7203 15.2331C25.7203 14.7087 25.2913 14.2797 24.7669 14.2797H22.8506C21.84 14.2797 20.8866 14.6706 20.1716 15.3856C19.447 16.1007 19.0466 17.0541 19.0466 18.0646V20.9534H16.1864C15.6621 20.9534 15.233 21.3824 15.233 21.9068C15.233 22.4312 15.6621 22.8602 16.1864 22.8602H19.0466V30.4396C13.7076 29.9534 9.51271 25.4534 9.51271 20C9.51271 14.2129 14.2129 9.51274 20 9.51274C25.7871 9.51274 30.4873 14.2129 30.4873 20C30.4873 25.4629 26.2924 29.9629 20.9534 30.4396Z" fill="white"/>
</svg>
