<svg width="36" height="37" viewBox="0 0 36 37" fill="none" xmlns="http://www.w3.org/2000/svg">
<ellipse cx="18" cy="18.5" rx="18" ry="18.5" fill="#A556E1"/>
<path fill-rule="evenodd" clip-rule="evenodd" d="M18 14.5C16.067 14.5 14.5 16.067 14.5 18C14.5 19.933 16.067 21.5 18 21.5C19.933 21.5 21.5 19.933 21.5 18C21.5 16.067 19.933 14.5 18 14.5ZM12.75 18C12.75 15.1005 15.1005 12.75 18 12.75C20.8995 12.75 23.25 15.1005 23.25 18C23.25 20.8995 20.8995 23.25 18 23.25C15.1005 23.25 12.75 20.8995 12.75 18Z" fill="white"/>
<path fill-rule="evenodd" clip-rule="evenodd" d="M13.1875 8.8125C10.7713 8.8125 8.8125 10.7713 8.8125 13.1875V22.8125C8.8125 25.2287 10.7713 27.1875 13.1875 27.1875H22.8125C25.2287 27.1875 27.1875 25.2287 27.1875 22.8125V13.1875C27.1875 10.7713 25.2287 8.8125 22.8125 8.8125H13.1875ZM7.0625 13.1875C7.0625 9.80476 9.80476 7.0625 13.1875 7.0625H22.8125C26.1952 7.0625 28.9375 9.80476 28.9375 13.1875V22.8125C28.9375 26.1952 26.1952 28.9375 22.8125 28.9375H13.1875C9.80476 28.9375 7.0625 26.1952 7.0625 22.8125V13.1875Z" fill="white"/>
<path d="M23.6875 13.625C24.4124 13.625 25 13.0374 25 12.3125C25 11.5876 24.4124 11 23.6875 11C22.9626 11 22.375 11.5876 22.375 12.3125C22.375 13.0374 22.9626 13.625 23.6875 13.625Z" fill="white"/>
</svg>
