<svg width="50" height="50" viewBox="0 0 50 50" fill="none" xmlns="http://www.w3.org/2000/svg">
<path d="M35.4167 45.8333H10.4167C8.75905 45.8333 7.16934 45.1748 5.99724 44.0027C4.82514 42.8306 4.16666 41.2409 4.16666 39.5833V18.75C4.16666 17.0924 4.82514 15.5027 5.99724 14.3306C7.16934 13.1585 8.75905 12.5 10.4167 12.5H12.5C12.535 10.7347 13.1299 9.02607 14.1988 7.62068C15.2676 6.21528 16.7553 5.18571 18.4472 4.68048C20.139 4.17524 21.9476 4.22044 23.6121 4.80956C25.2766 5.39869 26.711 6.50129 27.7083 7.95832C28.6426 9.28988 29.1511 10.8735 29.1667 12.5H35.4167C35.9692 12.5 36.4991 12.7195 36.8898 13.1102C37.2805 13.5009 37.5 14.0308 37.5 14.5833V20.8333C39.2653 20.8684 40.9739 21.4632 42.3793 22.5321C43.7847 23.601 44.8143 25.0886 45.3195 26.7805C45.8247 28.4723 45.7795 30.281 45.1904 31.9455C44.6013 33.61 43.4987 35.0443 42.0417 36.0417C40.7101 36.9759 39.1265 37.4844 37.5 37.5V43.75C37.5 44.3025 37.2805 44.8324 36.8898 45.2231C36.4991 45.6138 35.9692 45.8333 35.4167 45.8333ZM10.4167 16.6667C9.86412 16.6667 9.33422 16.8861 8.94352 17.2768C8.55282 17.6676 8.33332 18.1975 8.33332 18.75V39.5833C8.33332 40.1359 8.55282 40.6658 8.94352 41.0565C9.33422 41.4472 9.86412 41.6667 10.4167 41.6667H33.3333V35.0417C33.3315 34.7076 33.4101 34.378 33.5624 34.0807C33.7147 33.7834 33.9362 33.5271 34.2083 33.3333C34.4796 33.1399 34.7934 33.0143 35.1233 32.9672C35.4532 32.92 35.7895 32.9527 36.1042 33.0625C36.6979 33.3047 37.3445 33.3879 37.9802 33.3039C38.6159 33.2198 39.2187 32.9715 39.7292 32.5833C40.2372 32.2735 40.673 31.8585 41.0072 31.3662C41.3414 30.8738 41.5662 30.3157 41.6667 29.7292C41.747 29.1376 41.6993 28.5357 41.5268 27.9642C41.3542 27.3927 41.0609 26.8649 40.6667 26.4167C40.1335 25.769 39.4073 25.3085 38.5941 25.1024C37.7809 24.8963 36.9231 24.9553 36.1458 25.2708C35.8312 25.3806 35.4948 25.4133 35.1649 25.3662C34.8351 25.319 34.5213 25.1935 34.25 25C33.9779 24.8062 33.7563 24.5499 33.604 24.2526C33.4517 23.9553 33.3732 23.6257 33.375 23.2917V16.6667H26.7083C26.3659 16.6861 26.024 16.6206 25.713 16.4762C25.402 16.3318 25.1314 16.1128 24.9253 15.8387C24.7192 15.5646 24.5839 15.2438 24.5316 14.9049C24.4792 14.566 24.5113 14.2194 24.625 13.8958C24.8672 13.3021 24.9504 12.6555 24.8664 12.0197C24.7823 11.384 24.534 10.7812 24.1458 10.2708C23.8382 9.74825 23.417 9.30159 22.9133 8.96393C22.4096 8.62628 21.8365 8.40628 21.2362 8.32025C20.636 8.23421 20.024 8.28434 19.4458 8.46692C18.8676 8.64951 18.3378 8.95986 17.8958 9.37499C17.4854 9.7821 17.1641 10.2702 16.9525 10.8082C16.7409 11.3462 16.6435 11.9223 16.6667 12.5C16.6715 12.9778 16.7633 13.4508 16.9375 13.8958C17.0476 14.2109 17.0805 14.5477 17.0333 14.8781C16.986 15.2085 16.8601 15.5227 16.6662 15.7943C16.4722 16.0658 16.2158 16.2868 15.9186 16.4387C15.6214 16.5905 15.2921 16.6687 14.9583 16.6667H10.4167Z" fill="#1988D3"/>
</svg>
